<svg width="1229" height="1092" viewBox="0 0 1229 1092" fill="none" xmlns="http://www.w3.org/2000/svg">
<path d="M608.883 2V23.3333" stroke="white" stroke-opacity="0.35" stroke-width="3" stroke-linecap="round"/>
<path d="M608.883 64.3594V130" stroke="white" stroke-opacity="0.35" stroke-width="3" stroke-linecap="round"/>
<path d="M605.585 174.308V238.308" stroke="white" stroke-opacity="0.35" stroke-width="3" stroke-linecap="round"/>
<path d="M608.883 330.205V717.487" stroke="white" stroke-opacity="0.35" stroke-width="3" stroke-linecap="round"/>
<path d="M605.585 817.59V914.41" stroke="white" stroke-opacity="0.35" stroke-width="3" stroke-linecap="round"/>
<path d="M605.585 955.436V1012.87" stroke="white" stroke-opacity="0.35" stroke-width="3" stroke-linecap="round"/>
<path d="M608.883 1057.18V1090" stroke="white" stroke-opacity="0.35" stroke-width="3" stroke-linecap="round"/>
<path d="M229.66 913.771H247.797" stroke="white" stroke-opacity="0.35" stroke-width="3" stroke-linecap="round"/>
<path d="M264.285 913.771H302.207" stroke="white" stroke-opacity="0.35" stroke-width="3" stroke-linecap="round"/>
<path d="M325.29 913.771H412.676" stroke="white" stroke-opacity="0.35" stroke-width="3" stroke-linecap="round"/>
<path d="M452.247 913.771H829.822" stroke="white" stroke-opacity="0.35" stroke-width="3" stroke-linecap="round"/>
<path d="M847.958 913.771H913.91" stroke="white" stroke-opacity="0.35" stroke-width="3" stroke-linecap="round"/>
<path d="M936.994 915.303H976.565" stroke="white" stroke-opacity="0.35" stroke-width="3" stroke-linecap="round"/>
<path d="M997.999 915.303H1019.43" stroke="white" stroke-opacity="0.35" stroke-width="3" stroke-linecap="round"/>
<path d="M229.66 205.49H247.797" stroke="white" stroke-opacity="0.35" stroke-width="3" stroke-linecap="round"/>
<path d="M264.285 205.49H302.207" stroke="white" stroke-opacity="0.35" stroke-width="3" stroke-linecap="round"/>
<path d="M325.29 205.49H412.676" stroke="white" stroke-opacity="0.35" stroke-width="3" stroke-linecap="round"/>
<path d="M452.247 205.49H829.822" stroke="white" stroke-opacity="0.35" stroke-width="3" stroke-linecap="round"/>
<path d="M847.958 205.49H913.91" stroke="white" stroke-opacity="0.35" stroke-width="3" stroke-linecap="round"/>
<path d="M936.994 207.022H976.565" stroke="white" stroke-opacity="0.35" stroke-width="3" stroke-linecap="round"/>
<path d="M997.999 207.022H1019.43" stroke="white" stroke-opacity="0.35" stroke-width="3" stroke-linecap="round"/>
<path d="M1.81934 384.079H38.0928" stroke="white" stroke-opacity="0.35" stroke-width="3" stroke-linecap="round"/>
<path d="M59.5276 384.374H153.509" stroke="white" stroke-opacity="0.35" stroke-width="3" stroke-linecap="round"/>
<path d="M196.377 382.842H316.74" stroke="white" stroke-opacity="0.35" stroke-width="3" stroke-linecap="round"/>
<path d="M334.876 382.842H867.437" stroke="white" stroke-opacity="0.35" stroke-width="3" stroke-linecap="round"/>
<path d="M850.949 382.842H893.818" stroke="white" stroke-opacity="0.35" stroke-width="3" stroke-linecap="round"/>
<path d="M928.443 381.309H1027.37" stroke="white" stroke-opacity="0.35" stroke-width="3" stroke-linecap="round"/>
<path d="M1062 381.309H1151.03" stroke="white" stroke-opacity="0.35" stroke-width="3" stroke-linecap="round"/>
<path d="M1170.82 379.776H1218.63" stroke="white" stroke-opacity="0.35" stroke-width="3" stroke-linecap="round"/>
<path d="M10.3704 740.311H46.6439" stroke="white" stroke-opacity="0.35" stroke-width="3" stroke-linecap="round"/>
<path d="M68.0784 740.606H162.06" stroke="white" stroke-opacity="0.35" stroke-width="3" stroke-linecap="round"/>
<path d="M204.928 739.074H325.291" stroke="white" stroke-opacity="0.35" stroke-width="3" stroke-linecap="round"/>
<path d="M343.427 739.074H875.988" stroke="white" stroke-opacity="0.35" stroke-width="3" stroke-linecap="round"/>
<path d="M859.5 739.074H902.369" stroke="white" stroke-opacity="0.35" stroke-width="3" stroke-linecap="round"/>
<path d="M936.993 737.541H1035.92" stroke="white" stroke-opacity="0.35" stroke-width="3" stroke-linecap="round"/>
<path d="M1070.55 737.541H1159.58" stroke="white" stroke-opacity="0.35" stroke-width="3" stroke-linecap="round"/>
<path d="M1179.37 736.009H1227.18" stroke="white" stroke-opacity="0.35" stroke-width="3" stroke-linecap="round"/>
</svg>
