<svg width="243" height="84" viewBox="0 0 243 84" fill="none" xmlns="http://www.w3.org/2000/svg">
<rect x="47.7832" y="83.9999" width="7.56756" height="26.2808" transform="rotate(-90 47.7832 83.9999)" fill="white"/>
<rect x="47.7832" y="8.32434" width="8.32432" height="26.2808" transform="rotate(-90 47.7832 8.32434)" fill="white"/>
<rect x="39.9956" y="72.6486" width="9.08108" height="67.1621" transform="rotate(-90 39.9956 72.6486)" fill="white"/>
<rect x="32.209" y="59.7837" width="9.08108" height="74.9491" transform="rotate(-90 32.209 59.7837)" fill="white"/>
<rect x="97.4233" y="63.5674" width="3.78378" height="9.73364" transform="rotate(-90 97.4233 63.5674)" fill="white"/>
<rect width="9.08108" height="67.1621" transform="matrix(0 1 1 0 39.9956 10.5946)" fill="white"/>
<rect width="9.83783" height="74.9491" transform="matrix(0 1 1 0 32.209 24.2164)" fill="white"/>
<rect width="4.54054" height="9.73364" transform="matrix(0 1 1 0 97.4233 19.6757)" fill="white"/>
<rect y="47.9999" width="17" height="107" transform="rotate(-90 0 47.9999)" fill="white"/>
<rect width="4.54054" height="10.707" transform="matrix(0 -1 -1 0 134.413 62.0542)" fill="#D9D9D9"/>
<rect x="134.413" y="17.4058" width="5.29729" height="10.707" transform="rotate(90 134.413 17.4058)" fill="#D9D9D9"/>
<rect width="8.32432" height="24.3341" transform="matrix(0 -1 -1 0 181.133 83.9999)" fill="black"/>
<rect width="7.56756" height="24.3341" transform="matrix(0 -1 -1 0 181.133 7.56763)" fill="black"/>
<rect width="8.32432" height="66.1888" transform="matrix(0 -1 -1 0 189.894 71.8921)" fill="black"/>
<rect width="9.08108" height="73.0023" transform="matrix(0 -1 -1 0 196.707 59.0273)" fill="black"/>
<rect x="189.894" y="9.83801" width="9.08108" height="66.1888" transform="rotate(90 189.894 9.83801)" fill="black"/>
<rect x="196.707" y="24.2164" width="9.08108" height="73.0023" transform="rotate(90 196.707 24.2164)" fill="black"/>
<rect width="17" height="107" transform="matrix(0 -1 -1 0 231 46.9999)" fill="black"/>
<path d="M23.3146 30.8074L30.7065 30.7694C32.6585 30.7593 34.2228 31.2633 35.3995 32.2812C36.5762 33.2992 37.1724 34.7281 37.1881 36.5681C37.2041 38.456 36.6326 39.923 35.4734 40.9689C34.3302 41.9988 32.7746 42.5188 30.8066 42.5289L27.6626 42.5451L27.7053 47.5609L23.4574 47.5828L23.3146 30.8074ZM30.1042 38.9565C30.9521 38.9522 31.6146 38.7728 32.0916 38.4183C32.5846 38.0638 32.8275 37.4545 32.8201 36.5905C32.8128 35.7266 32.5677 35.1358 32.085 34.8183C31.6023 34.5008 30.9289 34.3443 30.065 34.3487L27.593 34.3614L27.6322 38.9692L30.1042 38.9565ZM41.7495 47.8487C40.3095 47.8561 39.1386 47.5181 38.2368 46.8348C37.3508 46.1353 36.9025 45.1616 36.8919 43.9137C36.8808 42.6177 37.2964 41.6236 38.1385 40.9312C38.9965 40.2228 40.2255 39.8645 41.8255 39.8562C42.4495 39.853 43.0741 39.9218 43.6993 40.0626C44.3244 40.1874 44.8619 40.3606 45.3118 40.5823L45.3097 40.3423C45.2992 39.1104 44.286 38.4996 42.27 38.51C40.8621 38.5172 39.5764 38.7958 38.413 39.3458L38.3883 36.4419C38.8983 36.1993 39.5686 36.0038 40.3994 35.8556C41.23 35.6913 42.0933 35.6068 42.9893 35.6022C45.1333 35.5912 46.753 36.0149 47.8483 36.8733C48.9595 37.7155 49.5216 38.9047 49.5347 40.4406L49.5943 47.4484L45.6344 47.4687L45.626 46.4848C45.1975 46.903 44.6563 47.2337 44.0024 47.4771C43.3484 47.7205 42.5975 47.8443 41.7495 47.8487ZM42.9754 45.2504C43.4714 45.2478 43.9346 45.1494 44.365 44.9552C44.7952 44.745 45.1209 44.4793 45.3422 44.1582L45.3336 43.1502C44.6417 42.6898 43.8557 42.4618 42.9757 42.4664C42.4157 42.4692 41.9848 42.5915 41.6828 42.833C41.3809 43.0746 41.2319 43.4273 41.2358 43.8913C41.2395 44.3233 41.3863 44.6585 41.6764 44.8971C41.9824 45.1355 42.4154 45.2533 42.9754 45.2504ZM51.5308 35.9183L55.6108 35.8973L55.623 37.3373C56.0667 36.823 56.6953 36.4277 57.509 36.1516C58.3225 35.8594 59.2253 35.7107 60.2173 35.7056L60.2449 38.9455C59.1889 38.9509 58.2542 39.1077 57.4408 39.4159C56.6434 39.724 56.0953 40.1829 55.7964 40.7924L55.8528 47.4162L51.6289 47.4379L51.5308 35.9183ZM64.7882 47.7302C63.3483 47.7376 62.1774 47.3996 61.2755 46.7163C60.3895 46.0168 59.9412 45.0431 59.9306 43.7952C59.9196 42.4992 60.3351 41.5051 61.1773 40.8127C62.0353 40.1043 63.2643 39.746 64.8642 39.7378C65.4882 39.7345 66.1128 39.8033 66.7381 39.9441C67.3631 40.0689 67.9006 40.2421 68.3505 40.4638L68.3485 40.2238C68.338 38.9919 67.3248 38.3811 65.3088 38.3915C63.9008 38.3987 62.6152 38.6773 61.4518 39.2273L61.4271 36.3234C61.937 36.0808 62.6074 35.8853 63.4382 35.7371C64.2688 35.5728 65.1321 35.4883 66.0281 35.4837C68.1721 35.4727 69.7917 35.8964 70.887 36.7548C71.9982 37.597 72.5604 38.7862 72.5735 40.3221L72.6331 47.3299L68.6731 47.3502L68.6648 46.3663C68.2363 46.7845 67.6951 47.1153 67.0412 47.3586C66.3872 47.602 65.6362 47.7258 64.7882 47.7302ZM66.0142 45.1319C66.5102 45.1293 66.9733 45.0309 67.4037 44.8367C67.8339 44.6265 68.1597 44.3608 68.381 44.0397L68.3724 43.0317C67.6804 42.5713 66.8945 42.3433 66.0145 42.3479C65.4545 42.3507 65.0235 42.473 64.7216 42.7145C64.4196 42.9561 64.2706 43.3088 64.2746 43.7728C64.2782 44.2048 64.4251 44.5401 64.7151 44.7786C65.0212 45.017 65.4542 45.1348 66.0142 45.1319ZM74.5167 29.584L78.7407 29.5623L78.8916 47.2977L74.6676 47.3194L74.5167 29.584ZM80.8916 29.5512L85.1156 29.5295L85.2665 47.2649L81.0425 47.2866L80.8916 29.5512ZM94.1884 47.579C91.9325 47.5906 90.152 47.0718 88.847 46.0225C87.558 44.9731 86.9053 43.4804 86.8889 41.5445C86.8727 39.6406 87.4278 38.1337 88.5544 37.0239C89.697 35.914 91.3483 35.3535 93.5083 35.3424C94.8843 35.3353 96.0625 35.5933 97.043 36.1162C98.0393 36.6231 98.7894 37.3313 99.2931 38.2407C99.8127 39.134 100.077 40.1486 100.087 41.2846L100.1 42.8446L90.9084 42.8918C91.0739 43.531 91.4778 43.9929 92.1203 44.2776C92.7627 44.5623 93.6359 44.7018 94.7399 44.6961C95.4919 44.6923 96.2593 44.6243 97.0422 44.4923C97.8411 44.3602 98.5276 44.1806 99.1017 43.9537L99.1254 46.7376C98.5355 46.9806 97.7931 47.1765 96.8983 47.3251C96.0197 47.4896 95.1164 47.5742 94.1884 47.579ZM96.0939 40.2251C96.0246 39.6015 95.7645 39.1148 95.3135 38.7651C94.8625 38.4155 94.245 38.2426 93.461 38.2467C92.693 38.2506 92.0866 38.4377 91.6417 38.808C91.1967 39.1623 90.9448 39.6436 90.886 40.2519L96.0939 40.2251ZM101.657 29.4444L105.881 29.4227L106.032 47.1581L101.808 47.1798L101.657 29.4444Z" fill="black"/>
<path d="M129.73 47.3962C128.674 47.4016 127.625 47.303 126.583 47.1004C125.542 46.9137 124.684 46.6461 124.009 46.2976L123.976 42.4817C124.844 42.9253 125.743 43.2567 126.673 43.4759C127.619 43.695 128.515 43.8024 129.363 43.7981C130.147 43.794 130.738 43.671 131.136 43.4289C131.534 43.1869 131.731 42.8419 131.728 42.3939C131.725 42.0579 131.61 41.7705 131.384 41.5316C131.174 41.2767 130.86 41.0463 130.442 40.8405C130.025 40.6346 129.374 40.35 128.491 39.9865C126.933 39.3385 125.799 38.6163 125.088 37.82C124.378 37.0236 124.017 36.0415 124.007 34.8735C123.999 33.9136 124.256 33.0562 124.777 32.3016C125.315 31.5468 126.062 30.9589 127.019 30.538C127.975 30.1171 129.077 29.9034 130.325 29.897C131.349 29.8917 132.262 29.967 133.063 30.1229C133.865 30.2788 134.635 30.5308 135.374 30.879L135.405 34.5989C133.991 33.8702 132.572 33.5095 131.148 33.5168C130.38 33.5207 129.765 33.6519 129.303 33.9103C128.857 34.1526 128.636 34.5057 128.64 34.9697C128.644 35.4337 128.879 35.8085 129.346 36.0941C129.812 36.3797 130.672 36.7673 131.924 37.2568C133.064 37.715 133.948 38.1664 134.575 38.6112C135.219 39.0559 135.688 39.5735 135.981 40.164C136.274 40.7545 136.424 41.5057 136.432 42.4177C136.445 43.9696 135.887 45.1885 134.759 46.0743C133.646 46.944 131.97 47.3847 129.73 47.3962ZM144.93 47.318C142.674 47.3296 140.894 46.8108 139.589 45.7615C138.3 44.7121 137.647 43.2194 137.63 41.2835C137.614 39.3796 138.169 37.8727 139.296 36.7629C140.439 35.653 142.09 35.0925 144.25 35.0814C145.626 35.0743 146.804 35.3323 147.784 35.8552C148.781 36.3621 149.531 37.0703 150.035 37.9797C150.554 38.873 150.819 39.8877 150.829 41.0236L150.842 42.5836L141.65 42.6308C141.815 43.27 142.219 43.7319 142.862 44.0166C143.504 44.3013 144.377 44.4408 145.481 44.4352C146.233 44.4313 147.001 44.3633 147.784 44.2313C148.583 44.0992 149.269 43.9197 149.843 43.6927L149.867 46.4766C149.277 46.7197 148.535 46.9155 147.64 47.0641C146.761 47.2286 145.858 47.3132 144.93 47.318ZM146.835 39.9642C146.766 39.3405 146.506 38.8538 146.055 38.5042C145.604 38.1545 144.987 37.9817 144.203 37.9857C143.435 37.9896 142.828 38.1768 142.383 38.547C141.938 38.9013 141.686 39.3826 141.627 39.9909L146.835 39.9642ZM152.398 29.1835L156.622 29.1617L156.773 46.8971L152.549 46.9188L152.398 29.1835ZM165.695 47.2112C163.439 47.2228 161.659 46.704 160.354 45.6547C159.065 44.6053 158.412 43.1126 158.396 41.1767C158.38 39.2728 158.935 37.7659 160.061 36.6561C161.204 35.5462 162.855 34.9857 165.015 34.9746C166.391 34.9675 167.569 35.2255 168.55 35.7484C169.546 36.2553 170.296 36.9635 170.8 37.8729C171.32 38.7662 171.584 39.7809 171.594 40.9168L171.607 42.4768L162.415 42.524C162.581 43.1632 162.985 43.6251 163.627 43.9098C164.27 44.1945 165.143 44.334 166.247 44.3284C166.999 44.3245 167.766 44.2565 168.549 44.1245C169.348 43.9924 170.035 43.8129 170.609 43.5859L170.632 46.3698C170.042 46.6129 169.3 46.8087 168.405 46.9573C167.527 47.1218 166.623 47.2064 165.695 47.2112ZM167.601 39.8574C167.531 39.2337 167.271 38.747 166.82 38.3974C166.369 38.0477 165.752 37.8749 164.968 37.8789C164.2 37.8828 163.593 38.07 163.149 38.4402C162.704 38.7945 162.452 39.2758 162.393 39.8841L167.601 39.8574ZM179.702 47.1392C177.59 47.15 175.913 46.6307 174.672 45.581C173.431 44.5314 172.803 43.0306 172.786 41.0787C172.769 39.1268 173.372 37.6117 174.595 36.5334C175.834 35.455 177.51 34.9104 179.622 34.8995C180.566 34.8946 181.446 34.9861 182.264 35.1739C183.097 35.3456 183.788 35.5981 184.335 35.9313L184.362 39.2191C183.381 38.5202 182.09 38.1748 180.49 38.1831C179.466 38.1883 178.644 38.4325 178.024 38.9157C177.42 39.3829 177.122 40.0964 177.13 41.0564C177.138 42.0323 177.448 42.7507 178.06 43.2116C178.672 43.6564 179.49 43.8762 180.514 43.871C182.066 43.863 183.407 43.4881 184.537 42.7463L184.564 46.0102C183.355 46.7524 181.734 47.1287 179.702 47.1392ZM191.247 47.0798C189.823 47.0871 188.74 46.7007 187.997 45.9205C187.27 45.1242 186.901 44.0381 186.889 42.6622L186.851 38.1503L185.219 38.1587L185.194 35.2308L186.826 35.2224L186.797 31.7666L191.021 31.7448L191.05 35.2007L193.69 35.1871L193.715 38.115L191.075 38.1286L191.108 42.0645C191.114 42.6884 191.23 43.1359 191.456 43.4067C191.698 43.6774 192.115 43.8113 192.707 43.8083C193.235 43.8055 193.762 43.6588 194.288 43.3681L194.314 46.512C193.9 46.7061 193.453 46.8444 192.974 46.9269C192.511 47.0253 191.935 47.0763 191.247 47.0798ZM197.655 33.6307C197.015 33.634 196.477 33.4288 196.041 33.015C195.606 32.6013 195.385 32.0744 195.38 31.4344C195.375 30.8104 195.586 30.2893 196.015 29.8711C196.443 29.4369 196.977 29.2182 197.617 29.2149C198.241 29.2117 198.771 29.425 199.207 29.8547C199.658 30.2684 199.887 30.7872 199.892 31.4112C199.897 32.0352 199.678 32.5643 199.233 32.9986C198.805 33.4168 198.279 33.6275 197.655 33.6307ZM195.556 35.1775L199.78 35.1558L199.878 46.6754L195.654 46.6971L195.556 35.1775ZM208.816 46.9894C207.392 46.9968 206.142 46.7472 205.066 46.2407C203.989 45.7182 203.151 45.0026 202.552 44.0936C201.968 43.1686 201.671 42.1061 201.66 40.9062C201.65 39.7062 201.929 38.6488 202.497 37.7339C203.082 36.8028 203.907 36.0786 204.975 35.5611C206.042 35.0276 207.288 34.7572 208.712 34.7499C210.136 34.7425 211.386 35.0001 212.463 35.5226C213.539 36.0291 214.369 36.7448 214.953 37.6698C215.553 38.5787 215.858 39.6332 215.868 40.8331C215.878 42.0331 215.591 43.0986 215.007 44.0296C214.439 44.9445 213.621 45.6687 212.554 46.2022C211.486 46.7197 210.24 46.9821 208.816 46.9894ZM208.788 43.7015C209.636 43.6972 210.306 43.4457 210.798 42.9472C211.306 42.4326 211.556 41.7353 211.548 40.8553C211.541 39.9754 211.279 39.2887 210.763 38.7954C210.262 38.2859 209.588 38.0334 208.74 38.0378C207.892 38.0421 207.214 38.3016 206.707 38.8162C206.215 39.3148 205.973 40.004 205.98 40.884C205.988 41.7639 206.242 42.4586 206.742 42.9681C207.258 43.4614 207.94 43.7059 208.788 43.7015ZM217.49 35.0647L221.57 35.0437L221.58 36.3157C222.072 35.7692 222.668 35.3581 223.37 35.0825C224.072 34.8069 224.806 34.6671 225.574 34.6631C227.19 34.6548 228.386 35.0727 229.161 35.9167C229.952 36.7446 230.354 37.8786 230.366 39.3185L230.427 46.5183L226.203 46.54L226.147 39.8922C226.136 38.5963 225.538 37.9514 224.354 37.9574C223.81 37.9602 223.316 38.0908 222.87 38.3491C222.424 38.5914 222.051 38.9693 221.751 39.4828L221.812 46.5626L217.588 46.5843L217.49 35.0647Z" fill="white"/>
</svg>
