<svg width="132" height="185" viewBox="0 0 132 185" fill="none" xmlns="http://www.w3.org/2000/svg">
<rect x="10" y="24" width="10" height="27" fill="white"/>
<rect x="110" y="24" width="11" height="27" fill="white"/>
<rect x="25" y="16" width="12" height="69" fill="white"/>
<rect x="42" y="8" width="12" height="77" fill="white"/>
<rect x="37" y="75" width="5" height="10" fill="white"/>
<rect width="12" height="69" transform="matrix(-1 0 0 1 107 16)" fill="white"/>
<rect width="13" height="77" transform="matrix(-1 0 0 1 89 8)" fill="white"/>
<rect width="6" height="10" transform="matrix(-1 0 0 1 95 75)" fill="white"/>
<rect x="60" width="12" height="85" fill="white"/>
<rect width="11" height="25" transform="matrix(1 0 0 -1 10 161)" fill="black"/>
<rect width="10" height="25" transform="matrix(1 0 0 -1 111 161)" fill="black"/>
<rect width="11" height="68" transform="matrix(1 0 0 -1 26 170)" fill="black"/>
<rect width="12" height="75" transform="matrix(1 0 0 -1 43 177)" fill="black"/>
<rect x="108" y="170" width="12" height="68" transform="rotate(-180 108 170)" fill="black"/>
<rect x="89" y="177" width="12" height="75" transform="rotate(-180 89 177)" fill="black"/>
<rect width="11" height="83" transform="matrix(1 0 0 -1 61 185)" fill="black"/>
<path d="M0.6975 88.1655H5.4715C6.73217 88.1655 7.73967 88.4962 8.494 89.1575C9.24833 89.8188 9.6255 90.7437 9.6255 91.932C9.6255 93.1513 9.24833 94.0968 8.494 94.7685C7.75 95.4298 6.7425 95.7605 5.4715 95.7605H3.441V99H0.6975V88.1655ZM5.0375 93.451C5.58517 93.451 6.014 93.3373 6.324 93.11C6.64433 92.8827 6.8045 92.49 6.8045 91.932C6.8045 91.374 6.6495 90.9917 6.3395 90.785C6.0295 90.5783 5.5955 90.475 5.0375 90.475H3.441V93.451H5.0375ZM12.5093 99.2325C11.5793 99.2325 10.825 99.0103 10.2463 98.566C9.67801 98.1113 9.39385 97.481 9.39385 96.675C9.39385 95.838 9.66768 95.1973 10.2153 94.753C10.7733 94.2983 11.569 94.071 12.6023 94.071C13.0053 94.071 13.4083 94.1175 13.8113 94.2105C14.2143 94.2932 14.5605 94.4068 14.8498 94.5515V94.3965C14.8498 93.6008 14.1988 93.203 12.8968 93.203C11.9875 93.203 11.1557 93.3787 10.4013 93.73V91.8545C10.732 91.6995 11.166 91.5755 11.7033 91.4825C12.2407 91.3792 12.7987 91.3275 13.3773 91.3275C14.762 91.3275 15.8057 91.6065 16.5083 92.1645C17.2213 92.7122 17.5778 93.482 17.5778 94.474V99H15.0203V98.3645C14.7413 98.6332 14.39 98.845 13.9663 99C13.5427 99.155 13.057 99.2325 12.5093 99.2325ZM13.3153 97.5585C13.6357 97.5585 13.9353 97.4965 14.2143 97.3725C14.4933 97.2382 14.7052 97.0677 14.8498 96.861V96.21C14.4055 95.9103 13.8992 95.7605 13.3308 95.7605C12.9692 95.7605 12.6902 95.838 12.4938 95.993C12.2975 96.148 12.1993 96.3753 12.1993 96.675C12.1993 96.954 12.2923 97.171 12.4783 97.326C12.6747 97.481 12.9537 97.5585 13.3153 97.5585ZM18.8918 91.56H21.5268V92.49C21.8162 92.1593 22.2243 91.9062 22.7513 91.7305C23.2783 91.5445 23.8622 91.4515 24.5028 91.4515V93.544C23.8208 93.544 23.2163 93.6422 22.6893 93.8385C22.1727 94.0348 21.8162 94.3293 21.6198 94.722V99H18.8918V91.56ZM27.3887 99.2325C26.4587 99.2325 25.7044 99.0103 25.1257 98.566C24.5574 98.1113 24.2732 97.481 24.2732 96.675C24.2732 95.838 24.5471 95.1973 25.0947 94.753C25.6527 94.2983 26.4484 94.071 27.4817 94.071C27.8847 94.071 28.2877 94.1175 28.6907 94.2105C29.0937 94.2932 29.4399 94.4068 29.7292 94.5515V94.3965C29.7292 93.6008 29.0782 93.203 27.7762 93.203C26.8669 93.203 26.0351 93.3787 25.2807 93.73V91.8545C25.6114 91.6995 26.0454 91.5755 26.5827 91.4825C27.1201 91.3792 27.6781 91.3275 28.2567 91.3275C29.6414 91.3275 30.6851 91.6065 31.3877 92.1645C32.1007 92.7122 32.4572 93.482 32.4572 94.474V99H29.8997V98.3645C29.6207 98.6332 29.2694 98.845 28.8457 99C28.4221 99.155 27.9364 99.2325 27.3887 99.2325ZM28.1947 97.5585C28.5151 97.5585 28.8147 97.4965 29.0937 97.3725C29.3727 97.2382 29.5846 97.0677 29.7292 96.861V96.21C29.2849 95.9103 28.7786 95.7605 28.2102 95.7605C27.8486 95.7605 27.5696 95.838 27.3732 95.993C27.1769 96.148 27.0787 96.3753 27.0787 96.675C27.0787 96.954 27.1717 97.171 27.3577 97.326C27.5541 97.481 27.8331 97.5585 28.1947 97.5585ZM33.7712 87.5455H36.4992V99H33.7712V87.5455ZM37.8884 87.5455H40.6164V99H37.8884V87.5455ZM46.3766 99.2325C44.9196 99.2325 43.7726 98.8915 42.9356 98.2095C42.1089 97.5275 41.6956 96.5613 41.6956 95.311C41.6956 94.0813 42.0624 93.11 42.7961 92.397C43.5401 91.684 44.6096 91.3275 46.0046 91.3275C46.8933 91.3275 47.6528 91.498 48.2831 91.839C48.9238 92.1697 49.4043 92.6295 49.7246 93.2185C50.0553 93.7972 50.2206 94.4533 50.2206 95.187V96.1945H44.2841C44.3874 96.6078 44.6458 96.9075 45.0591 97.0935C45.4724 97.2795 46.0356 97.3725 46.7486 97.3725C47.2343 97.3725 47.7303 97.3312 48.2366 97.2485C48.7533 97.1658 49.1976 97.0522 49.5696 96.9075V98.7055C49.1873 98.8605 48.7068 98.9845 48.1281 99.0775C47.5598 99.1808 46.9759 99.2325 46.3766 99.2325ZM47.6476 94.4895C47.6063 94.0865 47.4409 93.7713 47.1516 93.544C46.8623 93.3167 46.4644 93.203 45.9581 93.203C45.4621 93.203 45.0694 93.3218 44.7801 93.5595C44.4908 93.7868 44.3254 94.0968 44.2841 94.4895H47.6476ZM51.2996 87.5455H54.0276V99H51.2996V87.5455ZM64.0633 99.2325C63.3813 99.2325 62.7045 99.1653 62.0328 99.031C61.3611 98.907 60.8083 98.7313 60.3743 98.504V96.0395C60.9323 96.3288 61.511 96.5458 62.1103 96.6905C62.72 96.8352 63.2986 96.9075 63.8463 96.9075C64.3526 96.9075 64.735 96.83 64.9933 96.675C65.2517 96.52 65.3808 96.2978 65.3808 96.0085C65.3808 95.7915 65.3085 95.6055 65.1638 95.4505C65.0295 95.2852 64.828 95.1353 64.5593 95.001C64.2907 94.8667 63.8722 94.6807 63.3038 94.443C62.3015 94.0193 61.573 93.5492 61.1183 93.0325C60.6636 92.5158 60.4363 91.8803 60.4363 91.126C60.4363 90.506 60.6068 89.9532 60.9478 89.4675C61.2991 88.9818 61.7848 88.6047 62.4048 88.336C63.0248 88.0673 63.7378 87.933 64.5438 87.933C65.2051 87.933 65.7941 87.9847 66.3108 88.088C66.8275 88.1913 67.3235 88.3567 67.7988 88.584V90.9865C66.8895 90.5112 65.975 90.2735 65.0553 90.2735C64.5593 90.2735 64.1615 90.3562 63.8618 90.5215C63.5725 90.6765 63.4278 90.9038 63.4278 91.2035C63.4278 91.5032 63.5777 91.746 63.8773 91.932C64.177 92.118 64.7298 92.3712 65.5358 92.6915C66.2695 92.9912 66.8378 93.2857 67.2408 93.575C67.6542 93.8643 67.9538 94.2002 68.1398 94.5825C68.3258 94.9648 68.4188 95.4505 68.4188 96.0395C68.4188 97.0418 68.052 97.8272 67.3183 98.3955C66.595 98.9535 65.51 99.2325 64.0633 99.2325ZM73.88 99.2325C72.423 99.2325 71.276 98.8915 70.439 98.2095C69.6124 97.5275 69.199 96.5613 69.199 95.311C69.199 94.0813 69.5659 93.11 70.2995 92.397C71.0435 91.684 72.113 91.3275 73.508 91.3275C74.3967 91.3275 75.1562 91.498 75.7865 91.839C76.4272 92.1697 76.9077 92.6295 77.228 93.2185C77.5587 93.7972 77.724 94.4533 77.724 95.187V96.1945H71.7875C71.8909 96.6078 72.1492 96.9075 72.5625 97.0935C72.9759 97.2795 73.539 97.3725 74.252 97.3725C74.7377 97.3725 75.2337 97.3312 75.74 97.2485C76.2567 97.1658 76.701 97.0522 77.073 96.9075V98.7055C76.6907 98.8605 76.2102 98.9845 75.6315 99.0775C75.0632 99.1808 74.4794 99.2325 73.88 99.2325ZM75.151 94.4895C75.1097 94.0865 74.9444 93.7713 74.655 93.544C74.3657 93.3167 73.9679 93.203 73.4615 93.203C72.9655 93.203 72.5729 93.3218 72.2835 93.5595C71.9942 93.7868 71.8289 94.0968 71.7875 94.4895H75.151ZM78.803 87.5455H81.531V99H78.803V87.5455ZM87.2912 99.2325C85.8342 99.2325 84.6872 98.8915 83.8502 98.2095C83.0235 97.5275 82.6102 96.5613 82.6102 95.311C82.6102 94.0813 82.977 93.11 83.7107 92.397C84.4547 91.684 85.5242 91.3275 86.9192 91.3275C87.8078 91.3275 88.5673 91.498 89.1977 91.839C89.8383 92.1697 90.3188 92.6295 90.6392 93.2185C90.9698 93.7972 91.1352 94.4533 91.1352 95.187V96.1945H85.1987C85.302 96.6078 85.5603 96.9075 85.9737 97.0935C86.387 97.2795 86.9502 97.3725 87.6632 97.3725C88.1488 97.3725 88.6448 97.3312 89.1512 97.2485C89.6678 97.1658 90.1122 97.0522 90.4842 96.9075V98.7055C90.1018 98.8605 89.6213 98.9845 89.0427 99.0775C88.4743 99.1808 87.8905 99.2325 87.2912 99.2325ZM88.5622 94.4895C88.5208 94.0865 88.3555 93.7713 88.0662 93.544C87.7768 93.3167 87.379 93.203 86.8727 93.203C86.3767 93.203 85.984 93.3218 85.6947 93.5595C85.4053 93.7868 85.24 94.0968 85.1987 94.4895H88.5622ZM96.3371 99.2325C94.9731 99.2325 93.8933 98.8915 93.0976 98.2095C92.3019 97.5275 91.9041 96.5562 91.9041 95.2955C91.9041 94.0348 92.3019 93.0583 93.0976 92.366C93.9036 91.6737 94.9886 91.3275 96.3526 91.3275C96.9623 91.3275 97.5306 91.3895 98.0576 91.5135C98.5949 91.6272 99.0393 91.7925 99.3906 92.0095V94.133C98.7603 93.6783 97.9284 93.451 96.8951 93.451C96.2338 93.451 95.7016 93.606 95.2986 93.916C94.9059 94.2157 94.7096 94.6755 94.7096 95.2955C94.7096 95.9258 94.9059 96.3908 95.2986 96.6905C95.6913 96.9798 96.2183 97.1245 96.8796 97.1245C97.8819 97.1245 98.7499 96.8868 99.4836 96.4115V98.5195C98.6983 98.9948 97.6494 99.2325 96.3371 99.2325ZM103.794 99.2325C102.874 99.2325 102.176 98.9793 101.701 98.473C101.236 97.9563 101.004 97.2537 101.004 96.365V93.451H99.9496V91.56H101.004V89.328H103.732V91.56H105.437V93.451H103.732V95.993C103.732 96.396 103.804 96.6853 103.949 96.861C104.104 97.0367 104.372 97.1245 104.755 97.1245C105.096 97.1245 105.437 97.0315 105.778 96.8455V98.876C105.509 99 105.22 99.0878 104.91 99.1395C104.61 99.2015 104.238 99.2325 103.794 99.2325ZM108.006 90.568C107.592 90.568 107.246 90.4337 106.967 90.165C106.688 89.8963 106.549 89.5553 106.549 89.142C106.549 88.739 106.688 88.4032 106.967 88.1345C107.246 87.8555 107.592 87.716 108.006 87.716C108.409 87.716 108.75 87.8555 109.029 88.1345C109.318 88.4032 109.463 88.739 109.463 89.142C109.463 89.545 109.318 89.886 109.029 90.165C108.75 90.4337 108.409 90.568 108.006 90.568ZM106.642 91.56H109.37V99H106.642V91.56ZM115.141 99.2325C114.221 99.2325 113.415 99.0672 112.723 98.7365C112.03 98.3955 111.493 97.9305 111.111 97.3415C110.739 96.7422 110.553 96.055 110.553 95.28C110.553 94.505 110.739 93.823 111.111 93.234C111.493 92.6347 112.03 92.1697 112.723 91.839C113.415 91.498 114.221 91.3275 115.141 91.3275C116.06 91.3275 116.866 91.498 117.559 91.839C118.251 92.1697 118.783 92.6347 119.155 93.234C119.537 93.823 119.729 94.505 119.729 95.28C119.729 96.055 119.537 96.7422 119.155 97.3415C118.783 97.9305 118.251 98.3955 117.559 98.7365C116.866 99.0672 116.06 99.2325 115.141 99.2325ZM115.141 97.109C115.688 97.109 116.122 96.9488 116.443 96.6285C116.773 96.2978 116.939 95.8483 116.939 95.28C116.939 94.7117 116.773 94.2673 116.443 93.947C116.122 93.6163 115.688 93.451 115.141 93.451C114.593 93.451 114.154 93.6163 113.823 93.947C113.503 94.2673 113.343 94.7117 113.343 95.28C113.343 95.8483 113.503 96.2978 113.823 96.6285C114.154 96.9488 114.593 97.109 115.141 97.109ZM120.807 91.56H123.442V92.3815C123.763 92.0302 124.15 91.7667 124.605 91.591C125.06 91.4153 125.535 91.3275 126.031 91.3275C127.075 91.3275 127.844 91.6013 128.34 92.149C128.847 92.6863 129.1 93.42 129.1 94.35V99H126.372V94.7065C126.372 93.8695 125.99 93.451 125.225 93.451C124.874 93.451 124.553 93.5337 124.264 93.699C123.975 93.854 123.732 94.0968 123.535 94.4275V99H120.807V91.56Z" fill="#2E0139"/>
<path d="M0.6975 88.1655V87.9655H0.4975V88.1655H0.6975ZM8.494 89.1575L8.36215 89.3079L8.494 89.1575ZM8.494 94.7685L8.62687 94.918L8.627 94.9179L8.494 94.7685ZM3.441 95.7605V95.5605H3.241V95.7605H3.441ZM3.441 99V99.2H3.641V99H3.441ZM0.6975 99H0.4975V99.2H0.6975V99ZM6.324 93.11L6.20824 92.9469L6.20573 92.9487L6.324 93.11ZM3.441 90.475V90.275H3.241V90.475H3.441ZM3.441 93.451H3.241V93.651H3.441V93.451ZM0.6975 88.3655H5.4715V87.9655H0.6975V88.3655ZM5.4715 88.3655C6.69653 88.3655 7.65294 88.6861 8.36215 89.3079L8.62585 89.0071C7.8264 88.3062 6.7678 87.9655 5.4715 87.9655V88.3655ZM8.36215 89.3079C9.06511 89.9242 9.4255 90.7896 9.4255 91.932H9.8255C9.8255 90.6977 9.43156 89.7135 8.62585 89.0071L8.36215 89.3079ZM9.4255 91.932C9.4255 93.1071 9.06396 93.9932 8.361 94.6191L8.627 94.9179C9.43271 94.2005 9.8255 93.1955 9.8255 91.932H9.4255ZM8.36113 94.619C7.66299 95.2396 6.70749 95.5605 5.4715 95.5605V95.9605C6.77751 95.9605 7.83701 95.6201 8.62687 94.918L8.36113 94.619ZM5.4715 95.5605H3.441V95.9605H5.4715V95.5605ZM3.241 95.7605V99H3.641V95.7605H3.241ZM3.441 98.8H0.6975V99.2H3.441V98.8ZM0.8975 99V88.1655H0.4975V99H0.8975ZM5.0375 93.651C5.61024 93.651 6.08615 93.5324 6.44227 93.2713L6.20573 92.9487C5.94185 93.1422 5.5601 93.251 5.0375 93.251V93.651ZM6.43975 93.2731C6.83292 92.9941 7.0045 92.5257 7.0045 91.932H6.6045C6.6045 92.4543 6.45575 92.7713 6.20825 92.9469L6.43975 93.2731ZM7.0045 91.932C7.0045 91.3424 6.84011 90.8784 6.45044 90.6186L6.22856 90.9514C6.45889 91.105 6.6045 91.4056 6.6045 91.932H7.0045ZM6.45044 90.6186C6.09502 90.3816 5.61654 90.275 5.0375 90.275V90.675C5.57446 90.675 5.96399 90.775 6.22856 90.9514L6.45044 90.6186ZM5.0375 90.275H3.441V90.675H5.0375V90.275ZM3.241 90.475V93.451H3.641V90.475H3.241ZM3.441 93.651H5.0375V93.251H3.441V93.651ZM10.2463 98.566L10.1214 98.7222L10.1245 98.7246L10.2463 98.566ZM10.2153 94.753L10.3414 94.9083L10.3417 94.908L10.2153 94.753ZM13.8113 94.2105L13.7664 94.4054L13.7712 94.4064L13.8113 94.2105ZM14.8498 94.5515L14.7604 94.7304L15.0498 94.8751V94.5515H14.8498ZM10.4013 93.73H10.2013V94.0438L10.4858 93.9113L10.4013 93.73ZM10.4013 91.8545L10.3165 91.6734L10.2013 91.7274V91.8545H10.4013ZM11.7033 91.4825L11.7375 91.6796L11.7411 91.6789L11.7033 91.4825ZM16.5083 92.1645L16.384 92.3211L16.3865 92.3231L16.5083 92.1645ZM17.5778 99V99.2H17.7778V99H17.5778ZM15.0203 99H14.8203V99.2H15.0203V99ZM15.0203 98.3645H15.2203V97.8943L14.8816 98.2204L15.0203 98.3645ZM14.2143 97.3725L14.2956 97.5553L14.3011 97.5527L14.2143 97.3725ZM14.8498 96.861L15.0137 96.9757L15.0498 96.924V96.861H14.8498ZM14.8498 96.21H15.0498V96.1037L14.9617 96.0442L14.8498 96.21ZM12.4938 95.993L12.3699 95.836L12.3699 95.836L12.4938 95.993ZM12.4783 97.326L12.3503 97.4797L12.3544 97.483L12.4783 97.326ZM12.5093 99.0325C11.6112 99.0325 10.9033 98.8183 10.3682 98.4074L10.1245 98.7246C10.7467 99.2024 11.5475 99.4325 12.5093 99.4325V99.0325ZM10.3713 98.4098C9.85591 97.9975 9.59385 97.4277 9.59385 96.675H9.19385C9.19385 97.5343 9.50012 98.2251 10.1214 98.7222L10.3713 98.4098ZM9.59385 96.675C9.59385 95.8858 9.84943 95.3074 10.3414 94.9083L10.0893 94.5977C9.48594 95.0872 9.19385 95.7902 9.19385 96.675H9.59385ZM10.3417 94.908C10.8513 94.4928 11.5955 94.271 12.6023 94.271V93.871C11.5426 93.871 10.6954 94.1039 10.089 94.598L10.3417 94.908ZM12.6023 94.271C12.9898 94.271 13.3777 94.3157 13.7664 94.4054L13.8563 94.0156C13.439 93.9193 13.0209 93.871 12.6023 93.871V94.271ZM13.7712 94.4064C14.1615 94.4865 14.4902 94.5953 14.7604 94.7304L14.9393 94.3726C14.6308 94.2184 14.2672 94.0999 13.8515 94.0146L13.7712 94.4064ZM15.0498 94.5515V94.3965H14.6498V94.5515H15.0498ZM15.0498 94.3965C15.0498 93.9326 14.8539 93.5678 14.4659 93.3307C14.0939 93.1034 13.5617 93.003 12.8968 93.003V93.403C13.534 93.403 13.9783 93.5015 14.2573 93.672C14.5203 93.8328 14.6498 94.0647 14.6498 94.3965H15.0498ZM12.8968 93.003C11.9611 93.003 11.1001 93.1839 10.3169 93.5487L10.4858 93.9113C11.2113 93.5734 12.0139 93.403 12.8968 93.403V93.003ZM10.6013 93.73V91.8545H10.2013V93.73H10.6013ZM10.4862 92.0356C10.7949 91.8909 11.2099 91.7709 11.7375 91.6796L11.6692 91.2854C11.1221 91.3801 10.6691 91.5081 10.3165 91.6734L10.4862 92.0356ZM11.7411 91.6789C12.2653 91.5781 12.8106 91.5275 13.3773 91.5275V91.1275C12.7867 91.1275 12.2161 91.1802 11.6656 91.2861L11.7411 91.6789ZM13.3773 91.5275C14.7401 91.5275 15.7314 91.8029 16.384 92.3211L16.6327 92.0079C15.88 91.4101 14.784 91.1275 13.3773 91.1275V91.5275ZM16.3865 92.3231C17.0447 92.8286 17.3778 93.5368 17.3778 94.474H17.7778C17.7778 93.4272 17.398 92.5957 16.6302 92.0059L16.3865 92.3231ZM17.3778 94.474V99H17.7778V94.474H17.3778ZM17.5778 98.8H15.0203V99.2H17.5778V98.8ZM15.2203 99V98.3645H14.8203V99H15.2203ZM14.8816 98.2204C14.6257 98.4669 14.2994 98.6652 13.8976 98.8122L14.0351 99.1878C14.4806 99.0248 14.857 98.7994 15.1591 98.5086L14.8816 98.2204ZM13.8976 98.8122C13.5001 98.9576 13.0384 99.0325 12.5093 99.0325V99.4325C13.0756 99.4325 13.5852 99.3524 14.0351 99.1878L13.8976 98.8122ZM13.3153 97.7585C13.6623 97.7585 13.9898 97.6912 14.2956 97.5553L14.1331 97.1897C13.8809 97.3018 13.6091 97.3585 13.3153 97.3585V97.7585ZM14.3011 97.5527C14.604 97.4069 14.8454 97.2162 15.0137 96.9757L14.686 96.7463C14.565 96.9192 14.3827 97.0695 14.1276 97.1923L14.3011 97.5527ZM15.0498 96.861V96.21H14.6498V96.861H15.0498ZM14.9617 96.0442C14.4823 95.7209 13.9365 95.5605 13.3308 95.5605V95.9605C13.8619 95.9605 14.3288 96.0998 14.738 96.3758L14.9617 96.0442ZM13.3308 95.5605C12.9437 95.5605 12.6143 95.6431 12.3699 95.836L12.6178 96.15C12.7661 96.0329 12.9947 95.9605 13.3308 95.9605V95.5605ZM12.3699 95.836C12.1159 96.0366 11.9993 96.3276 11.9993 96.675H12.3993C12.3993 96.423 12.4792 96.2594 12.6178 96.15L12.3699 95.836ZM11.9993 96.675C11.9993 97.0033 12.1115 97.2806 12.3503 97.4796L12.6064 97.1724C12.4732 97.0614 12.3993 96.9047 12.3993 96.675H11.9993ZM12.3544 97.483C12.5988 97.6759 12.9282 97.7585 13.3153 97.7585V97.3585C12.9792 97.3585 12.7506 97.2861 12.6023 97.169L12.3544 97.483ZM18.8918 91.56V91.36H18.6918V91.56H18.8918ZM21.5268 91.56H21.7268V91.36H21.5268V91.56ZM21.5268 92.49H21.3268V93.0223L21.6774 92.6217L21.5268 92.49ZM22.7513 91.7305L22.8146 91.9203L22.8179 91.9191L22.7513 91.7305ZM24.5028 91.4515H24.7028V91.2515H24.5028V91.4515ZM24.5028 93.544V93.744H24.7028V93.544H24.5028ZM22.6893 93.8385L22.6195 93.6511L22.6183 93.6515L22.6893 93.8385ZM21.6198 94.722L21.441 94.6326L21.4198 94.6748V94.722H21.6198ZM21.6198 99V99.2H21.8198V99H21.6198ZM18.8918 99H18.6918V99.2H18.8918V99ZM18.8918 91.76H21.5268V91.36H18.8918V91.76ZM21.3268 91.56V92.49H21.7268V91.56H21.3268ZM21.6774 92.6217C21.9378 92.324 22.3125 92.0876 22.8146 91.9202L22.6881 91.5408C22.1361 91.7247 21.6945 91.9947 21.3763 92.3583L21.6774 92.6217ZM22.8179 91.9191C23.3206 91.7417 23.8816 91.6515 24.5028 91.6515V91.2515C23.8428 91.2515 23.236 91.3473 22.6848 91.5419L22.8179 91.9191ZM24.3028 91.4515V93.544H24.7028V91.4515H24.3028ZM24.5028 93.344C23.8019 93.344 23.173 93.4449 22.6195 93.6511L22.7592 94.0259C23.2596 93.8395 23.8398 93.744 24.5028 93.744V93.344ZM22.6183 93.6515C22.0674 93.8609 21.6651 94.1842 21.441 94.6326L21.7987 94.8114C21.9672 94.4744 22.278 94.2088 22.7604 94.0255L22.6183 93.6515ZM21.4198 94.722V99H21.8198V94.722H21.4198ZM21.6198 98.8H18.8918V99.2H21.6198V98.8ZM19.0918 99V91.56H18.6918V99H19.0918ZM25.1257 98.566L25.0008 98.7222L25.0039 98.7246L25.1257 98.566ZM25.0947 94.753L25.2208 94.9083L25.2211 94.908L25.0947 94.753ZM28.6907 94.2105L28.6458 94.4054L28.6506 94.4064L28.6907 94.2105ZM29.7292 94.5515L29.6398 94.7304L29.9292 94.8751V94.5515H29.7292ZM25.2807 93.73H25.0807V94.0438L25.3652 93.9113L25.2807 93.73ZM25.2807 91.8545L25.1959 91.6734L25.0807 91.7274V91.8545H25.2807ZM26.5827 91.4825L26.6169 91.6796L26.6205 91.6789L26.5827 91.4825ZM31.3877 92.1645L31.2633 92.3211L31.2659 92.3231L31.3877 92.1645ZM32.4572 99V99.2H32.6572V99H32.4572ZM29.8997 99H29.6997V99.2H29.8997V99ZM29.8997 98.3645H30.0997V97.8943L29.761 98.2204L29.8997 98.3645ZM29.0937 97.3725L29.175 97.5553L29.1805 97.5527L29.0937 97.3725ZM29.7292 96.861L29.8931 96.9757L29.9292 96.924V96.861H29.7292ZM29.7292 96.21H29.9292V96.1037L29.8411 96.0442L29.7292 96.21ZM27.3732 95.993L27.2493 95.836L27.2493 95.836L27.3732 95.993ZM27.3577 97.326L27.2297 97.4797L27.2338 97.483L27.3577 97.326ZM27.3887 99.0325C26.4906 99.0325 25.7827 98.8183 25.2475 98.4074L25.0039 98.7246C25.6261 99.2024 26.4269 99.4325 27.3887 99.4325V99.0325ZM25.2507 98.4098C24.7353 97.9975 24.4732 97.4277 24.4732 96.675H24.0732C24.0732 97.5343 24.3795 98.2251 25.0008 98.7222L25.2507 98.4098ZM24.4732 96.675C24.4732 95.8858 24.7288 95.3074 25.2208 94.9083L24.9687 94.5977C24.3653 95.0872 24.0732 95.7902 24.0732 96.675H24.4732ZM25.2211 94.908C25.7307 94.4928 26.4749 94.271 27.4817 94.271V93.871C26.422 93.871 25.5748 94.1039 24.9684 94.598L25.2211 94.908ZM27.4817 94.271C27.8692 94.271 28.2571 94.3157 28.6458 94.4054L28.7357 94.0156C28.3184 93.9193 27.9003 93.871 27.4817 93.871V94.271ZM28.6506 94.4064C29.0409 94.4865 29.3696 94.5953 29.6398 94.7304L29.8187 94.3726C29.5102 94.2184 29.1466 94.0999 28.7309 94.0146L28.6506 94.4064ZM29.9292 94.5515V94.3965H29.5292V94.5515H29.9292ZM29.9292 94.3965C29.9292 93.9326 29.7333 93.5678 29.3453 93.3307C28.9733 93.1034 28.4411 93.003 27.7762 93.003V93.403C28.4134 93.403 28.8577 93.5015 29.1367 93.672C29.3997 93.8328 29.5292 94.0647 29.5292 94.3965H29.9292ZM27.7762 93.003C26.8405 93.003 25.9795 93.1839 25.1963 93.5487L25.3652 93.9113C26.0907 93.5734 26.8933 93.403 27.7762 93.403V93.003ZM25.4807 93.73V91.8545H25.0807V93.73H25.4807ZM25.3656 92.0356C25.6743 91.8909 26.0893 91.7709 26.6169 91.6796L26.5486 91.2854C26.0015 91.3801 25.5485 91.5081 25.1959 91.6734L25.3656 92.0356ZM26.6205 91.6789C27.1447 91.5781 27.69 91.5275 28.2567 91.5275V91.1275C27.6661 91.1275 27.0954 91.1802 26.545 91.2861L26.6205 91.6789ZM28.2567 91.5275C29.6195 91.5275 30.6107 91.8029 31.2634 92.3211L31.5121 92.0079C30.7594 91.4101 29.6634 91.1275 28.2567 91.1275V91.5275ZM31.2659 92.3231C31.9241 92.8286 32.2572 93.5368 32.2572 94.474H32.6572C32.6572 93.4272 32.2774 92.5957 31.5096 92.0059L31.2659 92.3231ZM32.2572 94.474V99H32.6572V94.474H32.2572ZM32.4572 98.8H29.8997V99.2H32.4572V98.8ZM30.0997 99V98.3645H29.6997V99H30.0997ZM29.761 98.2204C29.5051 98.4669 29.1788 98.6652 28.777 98.8122L28.9145 99.1878C29.36 99.0248 29.7364 98.7994 30.0385 98.5086L29.761 98.2204ZM28.777 98.8122C28.3795 98.9576 27.9178 99.0325 27.3887 99.0325V99.4325C27.955 99.4325 28.4646 99.3524 28.9145 99.1878L28.777 98.8122ZM28.1947 97.7585C28.5417 97.7585 28.8691 97.6912 29.175 97.5553L29.0125 97.1897C28.7603 97.3018 28.4885 97.3585 28.1947 97.3585V97.7585ZM29.1805 97.5527C29.4834 97.4069 29.7248 97.2162 29.8931 96.9757L29.5654 96.7463C29.4444 96.9192 29.2621 97.0695 29.007 97.1923L29.1805 97.5527ZM29.9292 96.861V96.21H29.5292V96.861H29.9292ZM29.8411 96.0442C29.3617 95.7209 28.8159 95.5605 28.2102 95.5605V95.9605C28.7413 95.9605 29.2082 96.0998 29.6174 96.3758L29.8411 96.0442ZM28.2102 95.5605C27.8231 95.5605 27.4937 95.6431 27.2493 95.836L27.4972 96.15C27.6455 96.0329 27.8741 95.9605 28.2102 95.9605V95.5605ZM27.2493 95.836C26.9953 96.0366 26.8787 96.3276 26.8787 96.675H27.2787C27.2787 96.423 27.3586 96.2594 27.4972 96.15L27.2493 95.836ZM26.8787 96.675C26.8787 97.0033 26.9909 97.2806 27.2297 97.4796L27.4858 97.1724C27.3526 97.0614 27.2787 96.9047 27.2787 96.675H26.8787ZM27.2338 97.483C27.4782 97.6759 27.8076 97.7585 28.1947 97.7585V97.3585C27.8586 97.3585 27.63 97.2861 27.4817 97.169L27.2338 97.483ZM33.7712 87.5455V87.3455H33.5712V87.5455H33.7712ZM36.4992 87.5455H36.6992V87.3455H36.4992V87.5455ZM36.4992 99V99.2H36.6992V99H36.4992ZM33.7712 99H33.5712V99.2H33.7712V99ZM33.7712 87.7455H36.4992V87.3455H33.7712V87.7455ZM36.2992 87.5455V99H36.6992V87.5455H36.2992ZM36.4992 98.8H33.7712V99.2H36.4992V98.8ZM33.9712 99V87.5455H33.5712V99H33.9712ZM37.8884 87.5455V87.3455H37.6884V87.5455H37.8884ZM40.6164 87.5455H40.8164V87.3455H40.6164V87.5455ZM40.6164 99V99.2H40.8164V99H40.6164ZM37.8884 99H37.6884V99.2H37.8884V99ZM37.8884 87.7455H40.6164V87.3455H37.8884V87.7455ZM40.4164 87.5455V99H40.8164V87.5455H40.4164ZM40.6164 98.8H37.8884V99.2H40.6164V98.8ZM38.0884 99V87.5455H37.6884V99H38.0884ZM42.9356 98.2095L42.8083 98.3638L42.8093 98.3645L42.9356 98.2095ZM42.7961 92.397L42.6577 92.2526L42.6567 92.2536L42.7961 92.397ZM48.2831 91.839L48.1879 92.0149L48.1914 92.0167L48.2831 91.839ZM49.7246 93.2185L49.5489 93.3141L49.551 93.3177L49.7246 93.2185ZM50.2206 96.1945V96.3945H50.4206V96.1945H50.2206ZM44.2841 96.1945V95.9945H44.028L44.0901 96.243L44.2841 96.1945ZM45.0591 97.0935L45.1412 96.9111L45.1412 96.9111L45.0591 97.0935ZM48.2366 97.2485L48.205 97.051L48.2044 97.0511L48.2366 97.2485ZM49.5696 96.9075H49.7696V96.6151L49.4971 96.7211L49.5696 96.9075ZM49.5696 98.7055L49.6447 98.8908L49.7696 98.8402V98.7055H49.5696ZM48.1281 99.0775L48.0964 98.88L48.0923 98.8807L48.1281 99.0775ZM47.6476 94.4895V94.6895H47.8692L47.8466 94.4691L47.6476 94.4895ZM47.1516 93.544L47.2752 93.3867L47.2752 93.3867L47.1516 93.544ZM44.7801 93.5595L44.9037 93.7168L44.9071 93.714L44.7801 93.5595ZM44.2841 94.4895L44.0852 94.4686L44.0619 94.6895H44.2841V94.4895ZM46.3766 99.0325C44.9496 99.0325 43.8525 98.6986 43.0619 98.0545L42.8093 98.3645C43.6927 99.0844 44.8896 99.4325 46.3766 99.4325V99.0325ZM43.0629 98.0552C42.2902 97.4178 41.8956 96.5127 41.8956 95.311H41.4956C41.4956 96.6099 41.9277 97.6372 42.8083 98.3638L43.0629 98.0552ZM41.8956 95.311C41.8956 94.1236 42.2482 93.2083 42.9355 92.5404L42.6567 92.2536C41.8766 93.0117 41.4956 94.039 41.4956 95.311H41.8956ZM42.9345 92.5414C43.6297 91.8752 44.6426 91.5275 46.0046 91.5275V91.1275C44.5767 91.1275 43.4505 91.4928 42.6577 92.2526L42.9345 92.5414ZM46.0046 91.5275C46.8679 91.5275 47.593 91.6931 48.1879 92.0149L48.3783 91.6631C47.7125 91.3029 46.9186 91.1275 46.0046 91.1275V91.5275ZM48.1914 92.0167C48.7993 92.3305 49.2492 92.7629 49.5489 93.3141L49.9003 93.1229C49.5594 92.4961 49.0483 92.0089 48.3748 91.6613L48.1914 92.0167ZM49.551 93.3177C49.8627 93.8632 50.0206 94.4845 50.0206 95.187H50.4206C50.4206 94.4221 50.2479 93.7311 49.8983 93.1193L49.551 93.3177ZM50.0206 95.187V96.1945H50.4206V95.187H50.0206ZM50.2206 95.9945H44.2841V96.3945H50.2206V95.9945ZM44.0901 96.243C44.2093 96.72 44.512 97.0666 44.977 97.2759L45.1412 96.9111C44.7796 96.7484 44.5656 96.4957 44.4781 96.146L44.0901 96.243ZM44.977 97.2759C45.4267 97.4782 46.0218 97.5725 46.7486 97.5725V97.1725C46.0494 97.1725 45.5182 97.0808 45.1412 96.9111L44.977 97.2759ZM46.7486 97.5725C47.2457 97.5725 47.7524 97.5302 48.2688 97.4459L48.2044 97.0511C47.7081 97.1321 47.2229 97.1725 46.7486 97.1725V97.5725ZM48.2682 97.446C48.7948 97.3617 49.2536 97.245 49.6421 97.0939L49.4971 96.7211C49.1417 96.8593 48.7117 96.9699 48.205 97.051L48.2682 97.446ZM49.3696 96.9075V98.7055H49.7696V96.9075H49.3696ZM49.4945 98.5202C49.1306 98.6677 48.6658 98.7885 48.0964 98.88L48.1598 99.275C48.7477 99.1805 49.244 99.0533 49.6447 98.8908L49.4945 98.5202ZM48.0923 98.8807C47.5362 98.9818 46.9644 99.0325 46.3766 99.0325V99.4325C46.9875 99.4325 47.5833 99.3798 48.1639 99.2743L48.0923 98.8807ZM47.8466 94.4691C47.8003 94.0182 47.6117 93.6511 47.2752 93.3867L47.028 93.7013C47.2702 93.8915 47.4122 94.1548 47.4486 94.5099L47.8466 94.4691ZM47.2752 93.3867C46.9394 93.1229 46.4926 93.003 45.9581 93.003V93.403C46.4363 93.403 46.7851 93.5104 47.028 93.7013L47.2752 93.3867ZM45.9581 93.003C45.4309 93.003 44.9884 93.1295 44.6532 93.405L44.9071 93.714C45.1504 93.5141 45.4933 93.403 45.9581 93.403V93.003ZM44.6565 93.4022C44.3214 93.6656 44.1317 94.0265 44.0852 94.4686L44.483 94.5104C44.5191 94.1672 44.6602 93.9081 44.9037 93.7168L44.6565 93.4022ZM44.2841 94.6895H47.6476V94.2895H44.2841V94.6895ZM51.2996 87.5455V87.3455H51.0996V87.5455H51.2996ZM54.0276 87.5455H54.2276V87.3455H54.0276V87.5455ZM54.0276 99V99.2H54.2276V99H54.0276ZM51.2996 99H51.0996V99.2H51.2996V99ZM51.2996 87.7455H54.0276V87.3455H51.2996V87.7455ZM53.8276 87.5455V99H54.2276V87.5455H53.8276ZM54.0276 98.8H51.2996V99.2H54.0276V98.8ZM51.4996 99V87.5455H51.0996V99H51.4996ZM62.0328 99.031L62.072 98.8349L62.0691 98.8343L62.0328 99.031ZM60.3743 98.504H60.1743V98.625L60.2815 98.6812L60.3743 98.504ZM60.3743 96.0395L60.4664 95.8619L60.1743 95.7105V96.0395H60.3743ZM62.1103 96.6905L62.0634 96.8849L62.0641 96.8851L62.1103 96.6905ZM65.1638 95.4505L65.0082 95.5769L65.0176 95.587L65.1638 95.4505ZM64.5593 95.001L64.4699 95.1799L64.5593 95.001ZM63.3038 94.443L63.226 94.6272L63.2267 94.6275L63.3038 94.443ZM61.1183 93.0325L61.2685 92.9004L61.2685 92.9004L61.1183 93.0325ZM60.9478 89.4675L60.7858 89.3503L60.7841 89.3526L60.9478 89.4675ZM62.4048 88.336L62.4843 88.5195L62.4843 88.5195L62.4048 88.336ZM66.3108 88.088L66.35 87.8919L66.35 87.8919L66.3108 88.088ZM67.7988 88.584H67.9988V88.458L67.8851 88.4036L67.7988 88.584ZM67.7988 90.9865L67.7062 91.1637L67.9988 91.3167V90.9865H67.7988ZM63.8618 90.5215L63.9563 90.6978L63.9584 90.6966L63.8618 90.5215ZM63.8773 91.932L63.9828 91.7621L63.9828 91.7621L63.8773 91.932ZM65.5358 92.6915L65.6114 92.5063L65.6097 92.5056L65.5358 92.6915ZM67.2408 93.575L67.1242 93.7375L67.1261 93.7388L67.2408 93.575ZM68.1398 94.5825L68.3197 94.495L68.3197 94.495L68.1398 94.5825ZM67.3183 98.3955L67.4405 98.5539L67.4408 98.5536L67.3183 98.3955ZM64.0633 99.0325C63.3945 99.0325 62.7308 98.9666 62.072 98.8349L61.9936 99.2271C62.6781 99.364 63.3681 99.4325 64.0633 99.4325V99.0325ZM62.0691 98.8343C61.41 98.7126 60.8779 98.542 60.4671 98.3268L60.2815 98.6812C60.7387 98.9207 61.3123 99.1014 61.9965 99.2277L62.0691 98.8343ZM60.5743 98.504V96.0395H60.1743V98.504H60.5743ZM60.2823 96.2171C60.8543 96.5137 61.4481 96.7364 62.0634 96.8849L62.1572 96.4961C61.5739 96.3553 61.0103 96.144 60.4664 95.8619L60.2823 96.2171ZM62.0641 96.8851C62.6868 97.0328 63.2811 97.1075 63.8463 97.1075V96.7075C63.3162 96.7075 62.7532 96.6375 62.1565 96.4959L62.0641 96.8851ZM63.8463 97.1075C64.367 97.1075 64.7923 97.0289 65.0962 96.8465L64.8904 96.5035C64.6777 96.6311 64.3383 96.7075 63.8463 96.7075V97.1075ZM65.0962 96.8465C65.4118 96.6572 65.5808 96.3716 65.5808 96.0085H65.1808C65.1808 96.2241 65.0915 96.3828 64.8904 96.5035L65.0962 96.8465ZM65.5808 96.0085C65.5808 95.7422 65.4901 95.507 65.31 95.314L65.0176 95.587C65.1268 95.704 65.1808 95.8408 65.1808 96.0085H65.5808ZM65.319 95.3244C65.161 95.1299 64.9331 94.9643 64.6488 94.8221L64.4699 95.1799C64.7228 95.3064 64.898 95.4405 65.0086 95.5766L65.319 95.3244ZM64.6488 94.8221C64.3738 94.6846 63.9501 94.4965 63.381 94.2585L63.2267 94.6275C63.7942 94.8648 64.2075 95.0487 64.4699 95.1799L64.6488 94.8221ZM63.3817 94.2588C62.3927 93.8407 61.695 93.3851 61.2685 92.9004L60.9682 93.1646C61.4509 93.7132 62.2103 94.1979 63.226 94.6272L63.3817 94.2588ZM61.2685 92.9004C60.8491 92.4238 60.6363 91.8367 60.6363 91.126H60.2363C60.2363 91.9239 60.4782 92.6078 60.9682 93.1646L61.2685 92.9004ZM60.6363 91.126C60.6363 90.5452 60.7952 90.0329 61.1115 89.5824L60.7841 89.3526C60.4184 89.8735 60.2363 90.4668 60.2363 91.126H60.6363ZM61.1099 89.5847C61.4376 89.1317 61.893 88.7758 62.4843 88.5195L62.3253 88.1525C61.6766 88.4336 61.1607 88.8319 60.7858 89.3503L61.1099 89.5847ZM62.4843 88.5195C63.0749 88.2636 63.76 88.133 64.5438 88.133V87.733C63.7156 87.733 62.9748 87.8711 62.3253 88.1525L62.4843 88.5195ZM64.5438 88.133C65.1952 88.133 65.7706 88.1839 66.2716 88.2841L66.35 87.8919C65.8177 87.7854 65.2151 87.733 64.5438 87.733V88.133ZM66.2716 88.2841C66.772 88.3842 67.2522 88.5443 67.7125 88.7644L67.8851 88.4036C67.3948 88.1691 66.883 87.9985 66.35 87.8919L66.2716 88.2841ZM67.5988 88.584V90.9865H67.9988V88.584H67.5988ZM67.8915 90.8093C66.9569 90.3207 66.0108 90.0735 65.0553 90.0735V90.4735C65.9391 90.4735 66.8221 90.7016 67.7062 91.1637L67.8915 90.8093ZM65.0553 90.0735C64.5397 90.0735 64.1048 90.159 63.7652 90.3464L63.9584 90.6966C64.2182 90.5533 64.5789 90.4735 65.0553 90.4735V90.0735ZM63.7674 90.3452C63.599 90.4354 63.462 90.5525 63.3676 90.7009C63.2726 90.8502 63.2278 91.02 63.2278 91.2035H63.6278C63.6278 91.0873 63.6554 90.9937 63.705 90.9156C63.7553 90.8366 63.8353 90.7626 63.9563 90.6978L63.7674 90.3452ZM63.2278 91.2035C63.2278 91.5856 63.4256 91.887 63.7718 92.1019L63.9828 91.7621C63.7297 91.605 63.6278 91.4208 63.6278 91.2035H63.2278ZM63.7718 92.1019C64.0883 92.2983 64.6562 92.5571 65.4619 92.8774L65.6097 92.5056C64.8034 92.1852 64.2657 91.9377 63.9828 91.7621L63.7718 92.1019ZM65.4602 92.8767C66.1869 93.1735 66.7391 93.461 67.1242 93.7375L67.3575 93.4125C66.9365 93.1103 66.3521 92.8089 65.6114 92.5063L65.4602 92.8767ZM67.1261 93.7388C67.5168 94.0123 67.7914 94.3235 67.96 94.67L68.3197 94.495C68.1162 94.0769 67.7915 93.7163 67.3555 93.4112L67.1261 93.7388ZM67.96 94.67C68.1286 95.0167 68.2188 95.4698 68.2188 96.0395H68.6188C68.6188 95.4312 68.523 94.913 68.3197 94.495L67.96 94.67ZM68.2188 96.0395C68.2188 96.9857 67.8763 97.7103 67.1958 98.2374L67.4408 98.5536C68.2277 97.944 68.6188 97.098 68.6188 96.0395H68.2188ZM67.1962 98.2371C66.523 98.7564 65.4898 99.0325 64.0633 99.0325V99.4325C65.5301 99.4325 66.667 99.1506 67.4405 98.5539L67.1962 98.2371ZM70.439 98.2095L70.3117 98.3638L70.3127 98.3645L70.439 98.2095ZM70.2995 92.397L70.1611 92.2526L70.1601 92.2536L70.2995 92.397ZM75.7865 91.839L75.6913 92.0149L75.6948 92.0167L75.7865 91.839ZM77.228 93.2185L77.0523 93.3141L77.0544 93.3177L77.228 93.2185ZM77.724 96.1945V96.3945H77.924V96.1945H77.724ZM71.7875 96.1945V95.9945H71.5314L71.5935 96.243L71.7875 96.1945ZM72.5625 97.0935L72.6446 96.9111L72.6446 96.9111L72.5625 97.0935ZM75.74 97.2485L75.7084 97.051L75.7078 97.0511L75.74 97.2485ZM77.073 96.9075H77.273V96.6151L77.0005 96.7211L77.073 96.9075ZM77.073 98.7055L77.1482 98.8908L77.273 98.8402V98.7055H77.073ZM75.6315 99.0775L75.5998 98.88L75.5957 98.8807L75.6315 99.0775ZM75.151 94.4895V94.6895H75.3726L75.35 94.4691L75.151 94.4895ZM74.655 93.544L74.7786 93.3867L74.7786 93.3867L74.655 93.544ZM72.2835 93.5595L72.4071 93.7168L72.4105 93.714L72.2835 93.5595ZM71.7875 94.4895L71.5886 94.4686L71.5654 94.6895H71.7875V94.4895ZM73.88 99.0325C72.453 99.0325 71.3559 98.6986 70.5654 98.0545L70.3127 98.3645C71.1961 99.0844 72.3931 99.4325 73.88 99.4325V99.0325ZM70.5663 98.0552C69.7936 97.4178 69.399 96.5127 69.399 95.311H68.999C68.999 96.6099 69.4311 97.6372 70.3117 98.3638L70.5663 98.0552ZM69.399 95.311C69.399 94.1236 69.7517 93.2083 70.4389 92.5404L70.1601 92.2536C69.38 93.0117 68.999 94.039 68.999 95.311H69.399ZM70.4379 92.5414C71.1331 91.8752 72.146 91.5275 73.508 91.5275V91.1275C72.0801 91.1275 70.9539 91.4928 70.1611 92.2526L70.4379 92.5414ZM73.508 91.5275C74.3713 91.5275 75.0965 91.6931 75.6914 92.0149L75.8817 91.6631C75.2159 91.3029 74.4221 91.1275 73.508 91.1275V91.5275ZM75.6948 92.0167C76.3027 92.3305 76.7526 92.7629 77.0523 93.3141L77.4037 93.1229C77.0628 92.4961 76.5517 92.0089 75.8783 91.6613L75.6948 92.0167ZM77.0544 93.3177C77.3661 93.8632 77.524 94.4845 77.524 95.187H77.924C77.924 94.4221 77.7513 93.7311 77.4017 93.1193L77.0544 93.3177ZM77.524 95.187V96.1945H77.924V95.187H77.524ZM77.724 95.9945H71.7875V96.3945H77.724V95.9945ZM71.5935 96.243C71.7127 96.72 72.0154 97.0666 72.4805 97.2759L72.6446 96.9111C72.283 96.7484 72.069 96.4957 71.9816 96.146L71.5935 96.243ZM72.4805 97.2759C72.9301 97.4782 73.5252 97.5725 74.252 97.5725V97.1725C73.5528 97.1725 73.0216 97.0808 72.6446 96.9111L72.4805 97.2759ZM74.252 97.5725C74.7491 97.5725 75.2559 97.5302 75.7723 97.4459L75.7078 97.0511C75.2115 97.1321 74.7263 97.1725 74.252 97.1725V97.5725ZM75.7716 97.446C76.2982 97.3617 76.757 97.245 77.1455 97.0939L77.0005 96.7211C76.6451 96.8593 76.2152 96.9699 75.7084 97.051L75.7716 97.446ZM76.873 96.9075V98.7055H77.273V96.9075H76.873ZM76.9979 98.5202C76.634 98.6677 76.1692 98.7885 75.5998 98.88L75.6633 99.275C76.2511 99.1805 76.7474 99.0533 77.1482 98.8908L76.9979 98.5202ZM75.5957 98.8807C75.0397 98.9818 74.4678 99.0325 73.88 99.0325V99.4325C74.4909 99.4325 75.0867 99.3798 75.6673 99.2743L75.5957 98.8807ZM75.35 94.4691C75.3037 94.0182 75.1151 93.6511 74.7786 93.3867L74.5315 93.7013C74.7736 93.8915 74.9157 94.1548 74.9521 94.5099L75.35 94.4691ZM74.7786 93.3867C74.4428 93.1229 73.996 93.003 73.4615 93.003V93.403C73.9397 93.403 74.2885 93.5104 74.5315 93.7013L74.7786 93.3867ZM73.4615 93.003C72.9344 93.003 72.4919 93.1295 72.1566 93.405L72.4105 93.714C72.6539 93.5141 72.9967 93.403 73.4615 93.403V93.003ZM72.16 93.4022C71.8248 93.6656 71.6352 94.0265 71.5886 94.4686L71.9864 94.5104C72.0226 94.1672 72.1636 93.9081 72.4071 93.7168L72.16 93.4022ZM71.7875 94.6895H75.151V94.2895H71.7875V94.6895ZM78.803 87.5455V87.3455H78.603V87.5455H78.803ZM81.531 87.5455H81.731V87.3455H81.531V87.5455ZM81.531 99V99.2H81.731V99H81.531ZM78.803 99H78.603V99.2H78.803V99ZM78.803 87.7455H81.531V87.3455H78.803V87.7455ZM81.331 87.5455V99H81.731V87.5455H81.331ZM81.531 98.8H78.803V99.2H81.531V98.8ZM79.003 99V87.5455H78.603V99H79.003ZM83.8502 98.2095L83.7229 98.3638L83.7238 98.3645L83.8502 98.2095ZM83.7107 92.397L83.5723 92.2526L83.5713 92.2536L83.7107 92.397ZM89.1977 91.839L89.1025 92.0149L89.1059 92.0167L89.1977 91.839ZM90.6392 93.2185L90.4634 93.3141L90.4655 93.3177L90.6392 93.2185ZM91.1352 96.1945V96.3945H91.3352V96.1945H91.1352ZM85.1987 96.1945V95.9945H84.9425L85.0046 96.243L85.1987 96.1945ZM85.9737 97.0935L86.0557 96.9111L86.0557 96.9111L85.9737 97.0935ZM89.1512 97.2485L89.1196 97.051L89.1189 97.0511L89.1512 97.2485ZM90.4842 96.9075H90.6842V96.6151L90.4117 96.7211L90.4842 96.9075ZM90.4842 98.7055L90.5593 98.8908L90.6842 98.8402V98.7055H90.4842ZM89.0427 99.0775L89.0109 98.88L89.0069 98.8807L89.0427 99.0775ZM88.5622 94.4895V94.6895H88.7837L88.7611 94.4691L88.5622 94.4895ZM88.0662 93.544L88.1897 93.3867L88.1897 93.3867L88.0662 93.544ZM85.6947 93.5595L85.8182 93.7168L85.8216 93.714L85.6947 93.5595ZM85.1987 94.4895L84.9998 94.4686L84.9765 94.6895H85.1987V94.4895ZM87.2912 99.0325C85.8641 99.0325 84.7671 98.6986 83.9765 98.0545L83.7238 98.3645C84.6072 99.0844 85.8042 99.4325 87.2912 99.4325V99.0325ZM83.9774 98.0552C83.2047 97.4178 82.8102 96.5127 82.8102 95.311H82.4102C82.4102 96.6099 82.8422 97.6372 83.7229 98.3638L83.9774 98.0552ZM82.8102 95.311C82.8102 94.1236 83.1628 93.2083 83.85 92.5404L83.5713 92.2536C82.7912 93.0117 82.4102 94.039 82.4102 95.311H82.8102ZM83.849 92.5414C84.5442 91.8752 85.5571 91.5275 86.9192 91.5275V91.1275C85.4912 91.1275 84.3651 91.4928 83.5723 92.2526L83.849 92.5414ZM86.9192 91.5275C87.7825 91.5275 88.5076 91.6931 89.1025 92.0149L89.2928 91.6631C88.6271 91.3029 87.8332 91.1275 86.9192 91.1275V91.5275ZM89.1059 92.0167C89.7138 92.3305 90.1637 92.7629 90.4635 93.3141L90.8149 93.1229C90.4739 92.4961 89.9628 92.0089 89.2894 91.6613L89.1059 92.0167ZM90.4655 93.3177C90.7772 93.8632 90.9352 94.4845 90.9352 95.187H91.3352C91.3352 94.4221 91.1624 93.7311 90.8128 93.1193L90.4655 93.3177ZM90.9352 95.187V96.1945H91.3352V95.187H90.9352ZM91.1352 95.9945H85.1987V96.3945H91.1352V95.9945ZM85.0046 96.243C85.1239 96.72 85.4265 97.0666 85.8916 97.2759L86.0557 96.9111C85.6941 96.7484 85.4801 96.4957 85.3927 96.146L85.0046 96.243ZM85.8916 97.2759C86.3413 97.4782 86.9363 97.5725 87.6632 97.5725V97.1725C86.964 97.1725 86.4327 97.0808 86.0557 96.9111L85.8916 97.2759ZM87.6632 97.5725C88.1602 97.5725 88.667 97.5302 89.1834 97.4459L89.1189 97.0511C88.6227 97.1321 88.1374 97.1725 87.6632 97.1725V97.5725ZM89.1828 97.446C89.7094 97.3617 90.1681 97.245 90.5566 97.0939L90.4117 96.7211C90.0562 96.8593 89.6263 96.9699 89.1196 97.051L89.1828 97.446ZM90.2842 96.9075V98.7055H90.6842V96.9075H90.2842ZM90.409 98.5202C90.0451 98.6677 89.5804 98.7885 89.0109 98.88L89.0744 99.275C89.6623 99.1805 90.1585 99.0533 90.5593 98.8908L90.409 98.5202ZM89.0069 98.8807C88.4508 98.9818 87.8789 99.0325 87.2912 99.0325V99.4325C87.902 99.4325 88.4979 99.3798 89.0784 99.2743L89.0069 98.8807ZM88.7611 94.4691C88.7149 94.0182 88.5262 93.6511 88.1897 93.3867L87.9426 93.7013C88.1847 93.8915 88.3268 94.1548 88.3632 94.5099L88.7611 94.4691ZM88.1897 93.3867C87.854 93.1229 87.4072 93.003 86.8727 93.003V93.403C87.3508 93.403 87.6997 93.5104 87.9426 93.7013L88.1897 93.3867ZM86.8727 93.003C86.3455 93.003 85.903 93.1295 85.5677 93.405L85.8216 93.714C86.065 93.5141 86.4078 93.403 86.8727 93.403V93.003ZM85.5711 93.4022C85.2359 93.6656 85.0463 94.0265 84.9998 94.4686L85.3976 94.5104C85.4337 94.1672 85.5747 93.9081 85.8182 93.7168L85.5711 93.4022ZM85.1987 94.6895H88.5622V94.2895H85.1987V94.6895ZM93.0976 98.2095L93.2278 98.0576L93.2278 98.0576L93.0976 98.2095ZM93.0976 92.366L92.9673 92.2143L92.9663 92.2151L93.0976 92.366ZM98.0576 91.5135L98.0118 91.7082L98.0162 91.7092L98.0576 91.5135ZM99.3906 92.0095H99.5906V91.898L99.4957 91.8393L99.3906 92.0095ZM99.3906 94.133L99.2736 94.2952L99.5906 94.5239V94.133H99.3906ZM95.2986 93.916L95.4199 94.075L95.4205 94.0745L95.2986 93.916ZM95.2986 96.6905L95.1772 96.8495L95.18 96.8515L95.2986 96.6905ZM99.4836 96.4115H99.6836V96.0436L99.3749 96.2436L99.4836 96.4115ZM99.4836 98.5195L99.5872 98.6906L99.6836 98.6322V98.5195H99.4836ZM96.3371 99.0325C95.0062 99.0325 93.9774 98.7002 93.2278 98.0576L92.9674 98.3614C93.8091 99.0828 94.94 99.4325 96.3371 99.4325V99.0325ZM93.2278 98.0576C92.4854 97.4214 92.1041 96.5108 92.1041 95.2955H91.7041C91.7041 96.6016 92.1184 97.6336 92.9674 98.3614L93.2278 98.0576ZM92.1041 95.2955C92.1041 94.0803 92.4854 93.1638 93.2289 92.5169L92.9663 92.2151C92.1184 92.9529 91.7041 93.9894 91.7041 95.2955H92.1041ZM93.2279 92.5177C93.9883 91.8645 95.0225 91.5275 96.3526 91.5275V91.1275C94.9547 91.1275 93.8189 91.4828 92.9673 92.2143L93.2279 92.5177ZM96.3526 91.5275C96.9487 91.5275 97.5016 91.5881 98.0118 91.7082L98.1034 91.3188C97.5597 91.1909 96.9758 91.1275 96.3526 91.1275V91.5275ZM98.0162 91.7092C98.538 91.8195 98.9591 91.978 99.2855 92.1797L99.4957 91.8393C99.1195 91.607 98.6519 91.4348 98.099 91.3178L98.0162 91.7092ZM99.1906 92.0095V94.133H99.5906V92.0095H99.1906ZM99.5076 93.9708C98.8336 93.4846 97.9567 93.251 96.8951 93.251V93.651C97.9001 93.651 98.687 93.8721 99.2736 94.2952L99.5076 93.9708ZM96.8951 93.251C96.203 93.251 95.6239 93.4135 95.1767 93.7575L95.4205 94.0745C95.7793 93.7985 96.2646 93.651 96.8951 93.651V93.251ZM95.1773 93.757C94.7226 94.104 94.5096 94.6307 94.5096 95.2955H94.9096C94.9096 94.7203 95.0893 94.3273 95.4199 94.075L95.1773 93.757ZM94.5096 95.2955C94.5096 95.9693 94.7217 96.5018 95.1773 96.8495L95.4199 96.5315C95.0902 96.2798 94.9096 95.8824 94.9096 95.2955H94.5096ZM95.18 96.8515C95.6174 97.1738 96.1905 97.3245 96.8796 97.3245V96.9245C96.246 96.9245 95.7652 96.7859 95.4172 96.5295L95.18 96.8515ZM96.8796 97.3245C97.9147 97.3245 98.8217 97.0786 99.5923 96.5794L99.3749 96.2436C98.6781 96.6951 97.8491 96.9245 96.8796 96.9245V97.3245ZM99.2836 96.4115V98.5195H99.6836V96.4115H99.2836ZM99.38 98.3484C98.6366 98.7984 97.6278 99.0325 96.3371 99.0325V99.4325C97.6711 99.4325 98.76 99.1913 99.5872 98.6906L99.38 98.3484ZM101.701 98.473L101.552 98.6068L101.555 98.6099L101.701 98.473ZM101.004 93.451H101.204V93.251H101.004V93.451ZM99.9496 93.451H99.7496V93.651H99.9496V93.451ZM99.9496 91.56V91.36H99.7496V91.56H99.9496ZM101.004 91.56V91.76H101.204V91.56H101.004ZM101.004 89.328V89.128H100.804V89.328H101.004ZM103.732 89.328H103.932V89.128H103.732V89.328ZM103.732 91.56H103.532V91.76H103.732V91.56ZM105.437 91.56H105.637V91.36H105.437V91.56ZM105.437 93.451V93.651H105.637V93.451H105.437ZM103.732 93.451V93.251H103.532V93.451H103.732ZM103.949 96.861L103.794 96.9882L103.799 96.9933L103.949 96.861ZM105.778 96.8455H105.978V96.5086L105.682 96.6699L105.778 96.8455ZM105.778 98.876L105.861 99.0576L105.978 99.004V98.876H105.778ZM104.91 99.1395L104.877 98.9421L104.869 98.9436L104.91 99.1395ZM103.794 99.0325C102.91 99.0325 102.273 98.7903 101.847 98.3361L101.555 98.6099C102.08 99.1684 102.837 99.4325 103.794 99.4325V99.0325ZM101.85 98.3392C101.426 97.8686 101.204 97.2185 101.204 96.365H100.804C100.804 97.2889 101.046 98.0441 101.552 98.6068L101.85 98.3392ZM101.204 96.365V93.451H100.804V96.365H101.204ZM101.004 93.251H99.9496V93.651H101.004V93.251ZM100.15 93.451V91.56H99.7496V93.451H100.15ZM99.9496 91.76H101.004V91.36H99.9496V91.76ZM101.204 91.56V89.328H100.804V91.56H101.204ZM101.004 89.528H103.732V89.128H101.004V89.528ZM103.532 89.328V91.56H103.932V89.328H103.532ZM103.732 91.76H105.437V91.36H103.732V91.76ZM105.237 91.56V93.451H105.637V91.56H105.237ZM105.437 93.251H103.732V93.651H105.437V93.251ZM103.532 93.451V95.993H103.932V93.451H103.532ZM103.532 95.993C103.532 96.4103 103.605 96.758 103.794 96.9881L104.103 96.7339C104.003 96.6127 103.932 96.3817 103.932 95.993H103.532ZM103.799 96.9933C104.01 97.2328 104.35 97.3245 104.755 97.3245V96.9245C104.394 96.9245 104.197 96.8405 104.099 96.7287L103.799 96.9933ZM104.755 97.3245C105.133 97.3245 105.507 97.2208 105.873 97.0211L105.682 96.6699C105.366 96.8422 105.058 96.9245 104.755 96.9245V97.3245ZM105.578 96.8455V98.876H105.978V96.8455H105.578ZM105.694 98.6944C105.442 98.8105 105.17 98.8933 104.877 98.9422L104.942 99.3368C105.269 99.2824 105.576 99.1895 105.861 99.0576L105.694 98.6944ZM104.869 98.9436C104.587 99.002 104.23 99.0325 103.794 99.0325V99.4325C104.246 99.4325 104.633 99.401 104.95 99.3354L104.869 98.9436ZM106.967 90.165L107.106 90.0209L107.106 90.0209L106.967 90.165ZM106.967 88.1345L107.106 88.2786L107.108 88.2759L106.967 88.1345ZM109.029 88.1345L108.887 88.276L108.892 88.2811L109.029 88.1345ZM109.029 90.165L109.167 90.3091L109.167 90.309L109.029 90.165ZM106.642 91.56V91.36H106.442V91.56H106.642ZM109.37 91.56H109.57V91.36H109.37V91.56ZM109.37 99V99.2H109.57V99H109.37ZM106.642 99H106.442V99.2H106.642V99ZM108.006 90.368C107.64 90.368 107.345 90.2511 107.106 90.0209L106.828 90.3091C107.147 90.6162 107.544 90.768 108.006 90.768V90.368ZM107.106 90.0209C106.869 89.7927 106.749 89.505 106.749 89.142H106.349C106.349 89.6056 106.507 90 106.828 90.3091L107.106 90.0209ZM106.749 89.142C106.749 88.7909 106.868 88.5079 107.106 88.2786L106.828 87.9904C106.508 88.2985 106.349 88.6871 106.349 89.142H106.749ZM107.108 88.2759C107.348 88.0364 107.642 87.916 108.006 87.916V87.516C107.542 87.516 107.144 87.6746 106.826 87.9931L107.108 88.2759ZM108.006 87.916C108.357 87.916 108.647 88.0353 108.887 88.2759L109.17 87.9931C108.853 87.6757 108.46 87.516 108.006 87.516V87.916ZM108.892 88.2811C109.14 88.511 109.263 88.7933 109.263 89.142H109.663C109.663 88.6847 109.496 88.2953 109.165 87.9879L108.892 88.2811ZM109.263 89.142C109.263 89.4909 109.14 89.7798 108.89 90.021L109.167 90.309C109.496 89.9922 109.663 89.5991 109.663 89.142H109.263ZM108.89 90.0209C108.65 90.2521 108.359 90.368 108.006 90.368V90.768C108.458 90.768 108.849 90.6152 109.167 90.3091L108.89 90.0209ZM106.642 91.76H109.37V91.36H106.642V91.76ZM109.17 91.56V99H109.57V91.56H109.17ZM109.37 98.8H106.642V99.2H109.37V98.8ZM106.842 99V91.56H106.442V99H106.842ZM112.723 98.7365L112.634 98.9159L112.636 98.917L112.723 98.7365ZM111.111 97.3415L110.941 97.447L110.943 97.4504L111.111 97.3415ZM111.111 93.234L110.942 93.1264L110.941 93.1272L111.111 93.234ZM112.723 91.839L112.809 92.0195L112.811 92.0184L112.723 91.839ZM117.559 91.839L117.47 92.0184L117.472 92.0195L117.559 91.839ZM119.155 93.234L118.985 93.3395L118.987 93.3429L119.155 93.234ZM119.155 97.3415L118.986 97.2339L118.986 97.2347L119.155 97.3415ZM117.559 98.7365L117.645 98.917L117.647 98.9159L117.559 98.7365ZM116.443 96.6285L116.584 96.7699L116.584 96.7699L116.443 96.6285ZM116.443 93.947L116.299 94.0862L116.303 94.0906L116.443 93.947ZM113.823 93.947L113.964 94.0884L113.964 94.0884L113.823 93.947ZM113.823 96.6285L113.679 96.7677L113.684 96.7721L113.823 96.6285ZM115.141 99.0325C114.245 99.0325 113.469 98.8715 112.809 98.556L112.636 98.917C113.36 99.2628 114.197 99.4325 115.141 99.4325V99.0325ZM112.811 98.5571C112.148 98.2304 111.639 97.7884 111.278 97.2326L110.943 97.4504C111.347 98.0726 111.913 98.5606 112.634 98.9159L112.811 98.5571ZM111.28 97.236C110.93 96.6714 110.753 96.0215 110.753 95.28H110.353C110.353 96.0885 110.547 96.8129 110.941 97.447L111.28 97.236ZM110.753 95.28C110.753 94.5384 110.93 93.8943 111.28 93.3408L110.941 93.1272C110.547 93.7517 110.353 94.4716 110.353 95.28H110.753ZM111.279 93.3416C111.64 92.7763 112.147 92.3353 112.809 92.0195L112.636 91.6585C111.913 92.004 111.346 92.4931 110.942 93.1264L111.279 93.3416ZM112.811 92.0184C113.471 91.6933 114.246 91.5275 115.141 91.5275V91.1275C114.196 91.1275 113.359 91.3027 112.634 91.6596L112.811 92.0184ZM115.141 91.5275C116.035 91.5275 116.81 91.6933 117.47 92.0184L117.647 91.6596C116.922 91.3027 116.085 91.1275 115.141 91.1275V91.5275ZM117.472 92.0195C118.133 92.3352 118.635 92.7755 118.985 93.3395L119.325 93.1285C118.931 92.4939 118.368 92.0042 117.645 91.6585L117.472 92.0195ZM118.987 93.3429C119.346 93.8962 119.529 94.5395 119.529 95.28H119.929C119.929 94.4705 119.728 93.7498 119.323 93.1251L118.987 93.3429ZM119.529 95.28C119.529 96.0205 119.346 96.6696 118.986 97.2339L119.324 97.4491C119.728 96.8147 119.929 96.0895 119.929 95.28H119.529ZM118.986 97.2347C118.636 97.7892 118.133 98.2306 117.47 98.5571L117.647 98.9159C118.369 98.5604 118.93 98.0718 119.324 97.4483L118.986 97.2347ZM117.472 98.556C116.812 98.8715 116.036 99.0325 115.141 99.0325V99.4325C116.084 99.4325 116.921 99.2628 117.645 98.917L117.472 98.556ZM115.141 97.309C115.729 97.309 116.219 97.1354 116.584 96.7699L116.301 96.4871C116.026 96.7623 115.647 96.909 115.141 96.909V97.309ZM116.584 96.7699C116.96 96.3939 117.139 95.8892 117.139 95.28H116.739C116.739 95.8075 116.586 96.2017 116.301 96.4871L116.584 96.7699ZM117.139 95.28C117.139 94.6711 116.96 94.1698 116.582 93.8034L116.303 94.0906C116.586 94.3648 116.739 94.7523 116.739 95.28H117.139ZM116.586 93.8078C116.221 93.431 115.731 93.251 115.141 93.251V93.651C115.645 93.651 116.023 93.8017 116.299 94.0862L116.586 93.8078ZM115.141 93.251C114.55 93.251 114.056 93.431 113.682 93.8056L113.964 94.0884C114.251 93.8017 114.636 93.651 115.141 93.651V93.251ZM113.682 93.8056C113.315 94.1724 113.143 94.6729 113.143 95.28H113.543C113.543 94.7505 113.691 94.3623 113.964 94.0884L113.682 93.8056ZM113.143 95.28C113.143 95.8874 113.315 96.3914 113.679 96.7677L113.967 96.4893C113.691 96.2043 113.543 95.8092 113.543 95.28H113.143ZM113.684 96.7721C114.059 97.1353 114.551 97.309 115.141 97.309V96.909C114.634 96.909 114.249 96.7623 113.962 96.4849L113.684 96.7721ZM120.807 91.56V91.36H120.607V91.56H120.807ZM123.442 91.56H123.642V91.36H123.442V91.56ZM123.442 92.3815H123.242V92.8977L123.59 92.5163L123.442 92.3815ZM124.605 91.591L124.677 91.7776L124.677 91.7776L124.605 91.591ZM128.34 92.149L128.192 92.2833L128.195 92.2862L128.34 92.149ZM129.1 99V99.2H129.3V99H129.1ZM126.372 99H126.172V99.2H126.372V99ZM124.264 93.699L124.358 93.8754L124.363 93.8726L124.264 93.699ZM123.535 94.4275L123.363 94.3254L123.335 94.3726V94.4275H123.535ZM123.535 99V99.2H123.735V99H123.535ZM120.807 99H120.607V99.2H120.807V99ZM120.807 91.76H123.442V91.36H120.807V91.76ZM123.242 91.56V92.3815H123.642V91.56H123.242ZM123.59 92.5163C123.889 92.1884 124.25 91.9423 124.677 91.7776L124.533 91.4044C124.05 91.591 123.636 91.8719 123.295 92.2467L123.59 92.5163ZM124.677 91.7776C125.108 91.6109 125.559 91.5275 126.031 91.5275V91.1275C125.511 91.1275 125.011 91.2197 124.533 91.4044L124.677 91.7776ZM126.031 91.5275C127.042 91.5275 127.748 91.7924 128.192 92.2833L128.489 92.0147C127.941 91.4103 127.107 91.1275 126.031 91.1275V91.5275ZM128.195 92.2862C128.658 92.7774 128.9 93.4572 128.9 94.35H129.3C129.3 93.3828 129.036 92.5952 128.486 92.0118L128.195 92.2862ZM128.9 94.35V99H129.3V94.35H128.9ZM129.1 98.8H126.372V99.2H129.1V98.8ZM126.572 99V94.7065H126.172V99H126.572ZM126.572 94.7065C126.572 94.2614 126.471 93.8903 126.233 93.63C125.992 93.3662 125.643 93.251 125.225 93.251V93.651C125.571 93.651 125.796 93.745 125.937 93.8998C126.082 94.058 126.172 94.3146 126.172 94.7065H126.572ZM125.225 93.251C124.841 93.251 124.486 93.3418 124.165 93.5254L124.363 93.8726C124.621 93.7255 124.906 93.651 125.225 93.651V93.251ZM124.169 93.5227C123.843 93.6977 123.575 93.9688 123.363 94.3254L123.707 94.5296C123.888 94.2248 124.106 94.0103 124.358 93.8753L124.169 93.5227ZM123.335 94.4275V99H123.735V94.4275H123.335ZM123.535 98.8H120.807V99.2H123.535V98.8ZM121.007 99V91.56H120.607V99H121.007Z" fill="white"/>
</svg>
