<svg width="350" height="137" viewBox="0 0 350 137" fill="none" xmlns="http://www.w3.org/2000/svg">
<rect x="71.3799" y="137" width="12.3424" height="39.259" rx="2" transform="rotate(-90 71.3799 137)" fill="white"/>
<rect x="71.3799" y="13.5767" width="13.5766" height="39.259" rx="2" transform="rotate(-90 71.3799 13.5767)" fill="white"/>
<rect x="59.7461" y="118.487" width="14.8108" height="100.329" rx="2" transform="rotate(-90 59.7461 118.487)" fill="white"/>
<rect x="48.1147" y="97.5045" width="14.8108" height="111.961" rx="2" transform="rotate(-90 48.1147 97.5045)" fill="white"/>
<rect x="145.534" y="103.676" width="6.17118" height="14.5404" rx="2" transform="rotate(-90 145.534 103.676)" fill="white"/>
<rect width="14.8108" height="100.329" rx="2" transform="matrix(0 1 1 0 59.7461 17.2792)" fill="white"/>
<rect width="16.0451" height="111.961" rx="2" transform="matrix(0 1 1 0 48.1147 39.4958)" fill="white"/>
<rect width="7.40541" height="14.5404" rx="2" transform="matrix(0 1 1 0 145.534 32.0901)" fill="white"/>
<rect y="78.2856" width="27.7262" height="159.84" rx="2" transform="rotate(-90 0 78.2856)" fill="white"/>
<rect width="7.40541" height="15.9944" rx="2" transform="matrix(0 -1 -1 0 200.994 103.405)" fill="#D9D9D9"/>
<rect x="200.994" y="31" width="8.63965" height="15.9944" rx="2" transform="rotate(90 200.994 31)" fill="#D9D9D9"/>
<rect width="13.5766" height="36.351" rx="2" transform="matrix(0 -1 -1 0 270.581 137)" fill="#292929"/>
<rect width="12.3424" height="36.351" rx="2" transform="matrix(0 -1 -1 0 270.581 12.3424)" fill="#292929"/>
<rect width="13.5766" height="98.8746" rx="2" transform="matrix(0 -1 -1 0 283.668 117.253)" fill="#292929"/>
<rect width="14.8108" height="109.053" rx="2" transform="matrix(0 -1 -1 0 293.846 96.271)" fill="#292929"/>
<rect x="283.668" y="16.0454" width="14.8108" height="98.8746" rx="2" transform="rotate(90 283.668 16.0454)" fill="#292929"/>
<rect x="293.846" y="39.4958" width="14.8108" height="109.053" rx="2" transform="rotate(90 293.846 39.4958)" fill="#292929"/>
<rect width="27.7262" height="159.84" rx="2" transform="matrix(0 -1 -1 0 345.074 76.6547)" fill="#292929"/>
<path d="M34.962 52.6013L46.0498 52.539C48.9778 52.5226 51.3237 53.2774 53.0877 54.8035C54.8516 56.3296 55.7443 58.4727 55.7658 61.2326C55.7879 64.0645 54.929 66.2653 53.1892 67.8351C51.4732 69.3808 49.1392 70.1619 46.1873 70.1785L41.4714 70.205L41.53 77.7287L35.1581 77.7645L34.962 52.6013ZM45.1375 64.8203C46.4095 64.8132 47.4034 64.5436 48.1193 64.0116C48.8592 63.4794 49.224 62.5653 49.2139 61.2694C49.2038 59.9734 48.8369 59.0875 48.1132 58.6115C47.3895 58.1356 46.3796 57.9012 45.0836 57.9085L41.3757 57.9293L41.4296 64.8411L45.1375 64.8203ZM62.5958 78.1505C60.4359 78.1626 58.6799 77.6564 57.3279 76.632C55.9997 75.5835 55.3283 74.1232 55.3137 72.2513C55.2985 70.3073 55.9229 68.8158 57.1868 67.7767C58.4746 66.7134 60.3185 66.1751 62.7184 66.1616C63.6544 66.1564 64.5912 66.2591 65.5289 66.4698C66.4664 66.6566 67.2724 66.916 67.947 67.2483L67.9442 66.8883C67.9298 65.0403 66.4106 64.1248 63.3867 64.1418C61.2747 64.1537 59.3459 64.5725 57.6003 65.3983L57.5664 61.0425C58.3316 60.6782 59.3373 60.3845 60.5836 60.1615C61.8297 59.9145 63.1247 59.7872 64.4687 59.7797C67.6847 59.7616 70.1137 60.396 71.7558 61.6828C73.4217 62.9455 74.2636 64.7288 74.2815 67.0327L74.3635 77.5444L68.4235 77.5777L68.412 76.1018C67.7689 76.7294 66.9568 77.226 65.9756 77.5915C64.9944 77.957 63.8678 78.1433 62.5958 78.1505ZM64.4375 74.2521C65.1815 74.2479 65.8764 74.1 66.5221 73.8084C67.1677 73.4927 67.6566 73.094 67.9888 72.6121L67.9771 71.1001C66.9396 70.41 65.761 70.0686 64.441 70.076C63.601 70.0807 62.9544 70.2643 62.5012 70.6269C62.048 70.9894 61.8241 71.5187 61.8296 72.2147C61.8346 72.8627 62.0545 73.3654 62.4893 73.723C62.9481 74.0804 63.5975 74.2568 64.4375 74.2521ZM77.2806 60.2478L83.4005 60.2134L83.4173 62.3733C84.0833 61.6016 85.0267 61.0083 86.2475 60.5934C87.4681 60.1545 88.8224 59.9309 90.3104 59.9226L90.3483 64.7824C88.7643 64.7913 87.3621 65.0272 86.1417 65.4901C84.9453 65.9528 84.1226 66.6414 83.6737 67.556L83.7512 77.4917L77.4152 77.5272L77.2806 60.2478ZM97.1539 77.9564C94.9939 77.9685 93.2379 77.4624 91.8859 76.438C90.5577 75.3894 89.8863 73.9292 89.8717 72.0572C89.8566 70.1133 90.481 68.6217 91.7449 67.5826C93.0326 66.5194 94.8765 65.981 97.2765 65.9675C98.2125 65.9623 99.1493 66.065 100.087 66.2758C101.024 66.4625 101.83 66.722 102.505 67.0542L102.502 66.6942C102.488 64.8463 100.969 63.9308 97.9447 63.9478C95.8328 63.9596 93.904 64.3785 92.1584 65.2043L92.1244 60.8484C92.8896 60.4841 93.8954 60.1905 95.1416 59.9675C96.3878 59.7205 97.6828 59.5932 99.0268 59.5856C102.243 59.5676 104.672 60.2019 106.314 61.4887C107.98 62.7514 108.822 64.5347 108.84 66.8386L108.922 77.3503L102.982 77.3837L102.97 75.9077C102.327 76.5353 101.515 77.0319 100.534 77.3974C99.5525 77.7629 98.4259 77.9493 97.1539 77.9564ZM98.9956 74.058C99.7396 74.0538 100.434 73.9059 101.08 73.6143C101.726 73.2987 102.215 72.8999 102.547 72.418L102.535 70.9061C101.498 70.2159 100.319 69.8745 98.999 69.8819C98.159 69.8866 97.5124 70.0703 97.0593 70.4328C96.6061 70.7954 96.3822 71.3246 96.3876 72.0206C96.3927 72.6686 96.6126 73.1714 97.0474 73.5289C97.5062 73.8864 98.1556 74.0627 98.9956 74.058ZM111.766 50.73L118.102 50.6944L118.309 77.2976L111.973 77.3332L111.766 50.73ZM121.328 50.6763L127.664 50.6407L127.872 77.2439L121.536 77.2795L121.328 50.6763ZM141.254 77.7088C137.87 77.7278 135.2 76.9507 133.244 75.3777C131.311 73.8045 130.334 71.566 130.311 68.6621C130.289 65.8062 131.123 63.5455 132.814 61.8799C134.53 60.2143 137.007 59.3724 140.247 59.3542C142.311 59.3426 144.078 59.7287 145.548 60.5124C147.042 61.272 148.166 62.3337 148.921 63.6975C149.7 65.0372 150.095 66.559 150.109 68.2629L150.127 70.6028L136.339 70.6803C136.587 71.6389 137.192 72.3315 138.155 72.7581C139.119 73.1847 140.428 73.3933 142.084 73.384C143.212 73.3777 144.364 73.2752 145.538 73.0766C146.737 72.8779 147.766 72.6081 148.628 72.2673L148.66 76.4432C147.775 76.8081 146.661 77.1024 145.319 77.3259C144.001 77.5733 142.646 77.7009 141.254 77.7088ZM144.12 66.6765C144.017 65.7411 143.627 65.0113 142.951 64.4871C142.275 63.9628 141.349 63.704 140.173 63.7106C139.021 63.7171 138.111 63.9982 137.443 64.554C136.776 65.0857 136.397 65.8079 136.308 66.7204L144.12 66.6765ZM152.476 50.5014L158.812 50.4658L159.02 77.069L152.684 77.1046L152.476 50.5014Z" fill="black"/>
<path d="M194.566 77.4094C192.982 77.4183 191.409 77.2711 189.847 76.9679C188.285 76.6887 186.997 76.2879 185.985 75.7655L185.941 70.0417C187.242 70.7064 188.59 71.2029 189.984 71.531C191.403 71.8591 192.748 72.0195 194.02 72.0124C195.196 72.0058 196.083 71.8208 196.68 71.4574C197.277 71.0941 197.573 70.5764 197.568 69.9044C197.564 69.4004 197.393 68.9694 197.054 68.6113C196.739 68.2291 196.268 67.8837 195.642 67.5752C195.015 67.2667 194.04 66.8402 192.716 66.2956C190.38 65.3247 188.68 64.2423 187.614 63.0482C186.549 61.8542 186.009 60.3812 185.996 58.6293C185.985 57.1893 186.371 55.9031 187.154 54.7707C187.961 53.6382 189.082 52.7559 190.517 52.1238C191.952 51.4917 193.606 51.1704 195.478 51.1599C197.014 51.1513 198.383 51.2636 199.585 51.4969C200.786 51.7301 201.941 52.1076 203.05 52.6294L203.093 58.2092C200.972 57.1171 198.844 56.5771 196.708 56.5891C195.556 56.5955 194.634 56.7927 193.941 57.1806C193.272 57.5444 192.94 58.0743 192.945 58.7702C192.951 59.4662 193.303 60.0282 194.002 60.4563C194.702 60.8844 195.99 61.4652 197.868 62.1986C199.577 62.8851 200.903 63.5616 201.844 64.2283C202.809 64.8949 203.511 65.671 203.95 66.5565C204.389 67.4421 204.614 68.5688 204.624 69.9368C204.643 72.2647 203.805 74.0935 202.111 75.423C200.441 76.7284 197.926 77.3905 194.566 77.4094ZM217.366 77.2814C213.982 77.3004 211.312 76.5233 209.356 74.9503C207.423 73.3771 206.446 71.1386 206.423 68.2347C206.401 65.3788 207.235 63.1181 208.927 61.4525C210.642 59.7869 213.119 58.945 216.359 58.9268C218.423 58.9152 220.19 59.3013 221.66 60.085C223.154 60.8446 224.279 61.9063 225.033 63.2701C225.812 64.6098 226.207 66.1316 226.221 67.8355L226.239 70.1754L212.451 70.2529C212.699 71.2115 213.304 71.9041 214.267 72.3307C215.231 72.7573 216.54 72.9659 218.196 72.9566C219.324 72.9503 220.476 72.8478 221.65 72.6492C222.849 72.4505 223.879 72.1807 224.74 71.8399L224.772 76.0157C223.887 76.3807 222.774 76.675 221.431 76.8985C220.113 77.1459 218.758 77.2735 217.366 77.2814ZM220.232 66.2491C220.129 65.3137 219.739 64.5839 219.063 64.0596C218.387 63.5354 217.461 63.2766 216.285 63.2832C215.133 63.2897 214.223 63.5708 213.556 64.1266C212.888 64.6583 212.509 65.3805 212.42 66.293L220.232 66.2491ZM228.588 50.074L234.924 50.0384L235.132 76.6416L228.796 76.6772L228.588 50.074ZM248.514 77.1064C245.13 77.1254 242.46 76.3484 240.504 74.7754C238.571 73.2022 237.594 70.9637 237.571 68.0598C237.549 65.2039 238.383 62.9431 240.074 61.2776C241.79 59.612 244.267 58.77 247.507 58.7519C249.571 58.7403 251.338 59.1263 252.808 59.9101C254.302 60.6697 255.426 61.7314 256.181 63.0952C256.96 64.4349 257.355 65.9567 257.369 67.6606L257.387 70.0005L243.599 70.078C243.847 71.0366 244.452 71.7292 245.415 72.1558C246.379 72.5824 247.688 72.791 249.344 72.7817C250.472 72.7754 251.624 72.6729 252.798 72.4743C253.997 72.2756 255.027 72.0058 255.888 71.665L255.92 75.8408C255.035 76.2058 253.922 76.5001 252.579 76.7236C251.261 76.971 249.906 77.0986 248.514 77.1064ZM251.38 66.0742C251.277 65.1388 250.887 64.409 250.211 63.8847C249.535 63.3605 248.609 63.1017 247.433 63.1083C246.281 63.1148 245.371 63.3959 244.703 63.9517C244.036 64.4834 243.657 65.2056 243.568 66.1181L251.38 66.0742ZM269.524 76.9885C266.356 77.0063 263.842 76.2284 261.981 74.6548C260.121 73.0812 259.179 70.8305 259.157 67.9026C259.134 64.9747 260.04 62.7015 261.876 61.0832C263.735 59.4647 266.249 58.6466 269.417 58.6288C270.833 58.6209 272.154 58.7575 273.38 59.0386C274.63 59.2956 275.665 59.6738 276.485 60.1732L276.523 65.105C275.051 64.0573 273.115 63.5401 270.715 63.5536C269.179 63.5622 267.946 63.9292 267.016 64.6544C266.109 65.3555 265.661 66.426 265.672 67.866C265.684 69.3299 266.148 70.4073 267.066 71.0982C267.983 71.7651 269.21 72.0942 270.746 72.0855C273.073 72.0725 275.085 71.5092 276.781 70.3956L276.819 75.2915C275.003 76.4057 272.572 76.9714 269.524 76.9885ZM286.842 76.8912C284.706 76.9032 283.081 76.3243 281.968 75.1546C280.879 73.9607 280.326 72.3317 280.31 70.2678L280.257 63.5L277.809 63.5138L277.775 59.1219L280.223 59.1082L280.182 53.9243L286.518 53.8887L286.559 59.0726L290.519 59.0503L290.553 63.4422L286.593 63.4644L286.639 69.3683C286.646 70.3042 286.82 70.9753 287.159 71.3814C287.522 71.7873 288.147 71.9878 289.035 71.9828C289.827 71.9784 290.618 71.7579 291.406 71.3215L291.443 76.0374C290.821 76.3289 290.151 76.5366 289.432 76.6607C288.737 76.8086 287.874 76.8854 286.842 76.8912Z" fill="white"/>
</svg>
