<svg width="292" height="256" viewBox="0 0 292 256" fill="none" xmlns="http://www.w3.org/2000/svg">
<rect x="73.3906" y="256.001" width="23.0631" height="38.2626" transform="rotate(-90 73.3906 256.001)" fill="white"/>
<rect x="73.3906" y="25.3717" width="25.3694" height="38.2626" transform="rotate(-90 73.3906 25.3717)" fill="white"/>
<rect x="62.0518" y="221.406" width="27.6757" height="97.7822" transform="rotate(-90 62.0518 221.406)" fill="white"/>
<rect x="50.7158" y="182.199" width="27.6757" height="109.119" transform="rotate(-90 50.7158 182.199)" fill="white"/>
<rect x="145.663" y="193.73" width="11.5315" height="14.1713" transform="rotate(-90 145.663 193.73)" fill="white"/>
<rect width="27.6757" height="97.7822" transform="matrix(0 1 1 0 62.0518 32.2904)" fill="white"/>
<rect width="29.982" height="109.119" transform="matrix(0 1 1 0 50.7158 73.8045)" fill="white"/>
<rect width="13.8378" height="14.1713" transform="matrix(0 1 1 0 145.663 59.9661)" fill="white"/>
<rect x="3.82227" y="146.287" width="51.8096" height="155.783" transform="rotate(-90 3.82227 146.287)" fill="white"/>
<rect width="13.8378" height="15.5885" transform="matrix(0 -1 -1 0 199.515 189.119)" fill="#D9D9D9"/>
<rect x="199.515" y="53.0481" width="16.1442" height="15.5885" transform="rotate(90 199.515 53.0481)" fill="#D9D9D9"/>
<rect width="25.3694" height="35.4283" transform="matrix(0 -1 -1 0 180.397 255.999)" fill="black"/>
<rect width="23.0631" height="35.4283" transform="matrix(0 -1 -1 0 180.397 23.0639)" fill="black"/>
<rect width="25.3694" height="96.365" transform="matrix(0 -1 -1 0 193.152 219.099)" fill="black"/>
<rect width="27.6757" height="106.285" transform="matrix(0 -1 -1 0 203.072 179.893)" fill="black"/>
<rect x="193.152" y="29.9833" width="27.6757" height="96.365" transform="rotate(90 193.152 29.9833)" fill="black"/>
<rect x="203.072" y="73.8029" width="27.6757" height="106.285" transform="rotate(90 203.072 73.8029)" fill="black"/>
<rect width="51.8096" height="155.783" transform="matrix(0 -1 -1 0 253 143.238)" fill="black"/>
<path d="M9.65926 113.562L17.3588 113.479C19.392 113.457 21.0191 113.973 22.24 115.026C23.461 116.08 24.0753 117.565 24.0831 119.482C24.0911 121.448 23.489 122.98 22.2768 124.076C21.0812 125.156 19.4585 125.707 17.4086 125.729L14.1338 125.764L14.155 130.989L9.73029 131.036L9.65926 113.562ZM16.6935 122.011C17.5768 122.002 18.2677 121.811 18.7661 121.439C19.2813 121.067 19.537 120.431 19.5334 119.531C19.5297 118.631 19.2772 118.017 18.7759 117.689C18.2746 117.361 17.5739 117.202 16.674 117.211L14.0991 117.239L14.1187 122.039L16.6935 122.011ZM28.7821 131.206C27.2822 131.223 26.0641 130.877 25.1279 130.171C24.2083 129.447 23.7459 128.435 23.7406 127.135C23.7351 125.785 24.1726 124.747 25.0529 124.021C25.9499 123.278 27.2317 122.898 28.8982 122.88C29.5482 122.873 30.1985 122.941 30.849 123.084C31.4995 123.21 32.0586 123.387 32.5262 123.616L32.5252 123.366C32.5199 122.082 31.4674 121.452 29.3675 121.475C27.9009 121.49 26.5605 121.788 25.3462 122.368L25.3339 119.343C25.8662 119.087 26.5653 118.88 27.4313 118.72C28.2973 118.544 29.1969 118.451 30.1302 118.441C32.3634 118.417 34.0484 118.849 35.1854 119.737C36.3389 120.608 36.9189 121.843 36.9254 123.443L36.9551 130.743L32.8303 130.788L32.8262 129.763C32.3779 130.201 31.8127 130.549 31.1304 130.806C30.4481 131.063 29.6654 131.197 28.7821 131.206ZM30.071 128.492C30.5877 128.487 31.0706 128.382 31.5197 128.177C31.9688 127.955 32.3093 127.677 32.5413 127.341L32.537 126.291C31.8185 125.815 31.0009 125.582 30.0842 125.592C29.5009 125.598 29.0515 125.728 28.7358 125.982C28.4202 126.235 28.2634 126.603 28.2653 127.087C28.2672 127.537 28.4186 127.885 28.7196 128.132C29.0372 128.379 29.4877 128.499 30.071 128.492ZM39.0255 118.721L43.2753 118.675L43.2814 120.175C43.7458 119.637 44.4025 119.221 45.2513 118.929C46.1 118.619 47.041 118.459 48.0743 118.448L48.088 121.823C46.9881 121.835 46.0138 122.004 45.1651 122.33C44.3331 122.655 43.7601 123.136 43.446 123.773L43.474 130.673L39.0743 130.721L39.0255 118.721ZM52.7797 130.948C51.2798 130.964 50.0617 130.619 49.1256 129.912C48.206 129.189 47.7435 128.177 47.7382 126.877C47.7327 125.527 48.1702 124.489 49.0506 123.763C49.9475 123.02 51.2293 122.639 52.8959 122.621C53.5458 122.614 54.1961 122.682 54.8467 122.825C55.4972 122.952 56.0562 123.129 56.5238 123.357L56.5228 123.107C56.5176 121.824 55.465 121.194 53.3651 121.216C51.8986 121.232 50.5581 121.53 49.3438 122.11L49.3315 119.085C49.8638 118.829 50.563 118.621 51.429 118.462C52.2949 118.286 53.1945 118.193 54.1278 118.183C56.361 118.159 58.0461 118.591 59.183 119.479C60.3365 120.35 60.9165 121.585 60.923 123.185L60.9527 130.485L56.828 130.529L56.8238 129.504C56.3756 129.943 55.8103 130.29 55.1281 130.548C54.4458 130.805 53.663 130.938 52.7797 130.948ZM54.0687 128.234C54.5853 128.228 55.0682 128.123 55.5174 127.918C55.9665 127.697 56.307 127.418 56.5389 127.082L56.5347 126.032C55.8161 125.557 54.9985 125.324 54.0819 125.334C53.4986 125.34 53.0491 125.47 52.7335 125.723C52.4178 125.977 52.261 126.345 52.263 126.828C52.2648 127.278 52.4162 127.627 52.7172 127.874C53.0349 128.12 53.4854 128.24 54.0687 128.234ZM62.9968 111.987L67.3966 111.94L67.4717 130.415L63.0719 130.462L62.9968 111.987ZM69.6371 111.916L74.0368 111.868L74.1119 130.343L69.7122 130.391L69.6371 111.916ZM83.4035 130.618C81.0537 130.644 79.2015 130.114 77.8471 129.028C76.5094 127.942 75.8365 126.391 75.8283 124.375C75.8202 122.391 76.4055 120.818 77.584 119.656C78.7793 118.493 80.5019 117.899 82.7517 117.875C84.185 117.859 85.411 118.121 86.4299 118.66C87.4653 119.182 88.2433 119.916 88.7638 120.86C89.3009 121.788 89.5718 122.843 89.5766 124.027L89.5833 125.652L80.0088 125.755C80.1782 126.42 80.5968 126.898 81.2646 127.191C81.9325 127.484 82.8414 127.624 83.9913 127.612C84.7746 127.603 85.5743 127.528 86.3903 127.386C87.2231 127.244 87.939 127.053 88.538 126.813L88.5498 129.713C87.9342 129.969 87.16 130.178 86.2273 130.338C85.3114 130.514 84.3701 130.608 83.4035 130.618ZM85.4223 122.946C85.353 122.297 85.0843 121.792 84.6162 121.43C84.148 121.068 83.5057 120.892 82.689 120.901C81.8891 120.909 81.2566 121.108 80.7915 121.496C80.3263 121.868 80.0617 122.371 79.9976 123.005L85.4223 122.946ZM91.2667 111.683L95.6664 111.636L95.7415 130.11L91.3418 130.158L91.2667 111.683Z" fill="black"/>
<path d="M120.424 130.22C119.324 130.232 118.232 130.135 117.148 129.93C116.064 129.742 115.171 129.468 114.47 129.109L114.454 125.134C115.356 125.591 116.29 125.931 117.258 126.154C118.242 126.376 119.176 126.483 120.059 126.474C120.876 126.465 121.492 126.333 121.908 126.079C122.323 125.824 122.53 125.464 122.528 124.997C122.527 124.647 122.409 124.348 122.175 124.101C121.957 123.836 121.631 123.598 121.197 123.386C120.762 123.174 120.086 122.881 119.168 122.508C117.549 121.842 116.371 121.096 115.634 120.271C114.897 119.445 114.527 118.424 114.522 117.208C114.518 116.208 114.789 115.313 115.336 114.524C115.899 113.735 116.68 113.118 117.678 112.674C118.676 112.23 119.825 112.001 121.125 111.987C122.192 111.975 123.142 112.048 123.976 112.206C124.81 112.364 125.611 112.622 126.379 112.98L126.395 116.855C124.925 116.104 123.449 115.737 121.966 115.753C121.166 115.761 120.525 115.901 120.042 116.173C119.577 116.428 119.345 116.798 119.347 117.281C119.349 117.764 119.592 118.153 120.077 118.448C120.561 118.743 121.454 119.142 122.756 119.644C123.942 120.115 124.86 120.58 125.512 121.04C126.181 121.499 126.666 122.036 126.969 122.649C127.271 123.262 127.424 124.044 127.428 124.994C127.435 126.611 126.848 127.884 125.669 128.813C124.506 129.726 122.758 130.195 120.424 130.22ZM136.257 130.049C133.907 130.075 132.055 129.544 130.701 128.459C129.363 127.373 128.69 125.822 128.682 123.806C128.674 121.822 129.259 120.249 130.437 119.087C131.633 117.924 133.355 117.33 135.605 117.306C137.038 117.29 138.264 117.552 139.283 118.091C140.319 118.613 141.097 119.347 141.617 120.291C142.154 121.219 142.425 122.274 142.43 123.458L142.437 125.083L132.862 125.186C133.032 125.85 133.45 126.329 134.118 126.622C134.786 126.915 135.695 127.055 136.845 127.043C137.628 127.034 138.428 126.959 139.244 126.817C140.076 126.675 140.792 126.484 141.391 126.244L141.403 129.144C140.788 129.4 140.013 129.609 139.081 129.769C138.165 129.945 137.224 130.039 136.257 130.049ZM138.276 122.377C138.206 121.728 137.938 121.223 137.47 120.861C137.001 120.499 136.359 120.323 135.542 120.332C134.742 120.34 134.11 120.539 133.645 120.927C133.18 121.299 132.915 121.802 132.851 122.436L138.276 122.377ZM144.12 111.114L148.52 111.067L148.595 129.541L144.195 129.589L144.12 111.114ZM157.887 129.816C155.537 129.842 153.685 129.312 152.33 128.226C150.992 127.141 150.319 125.589 150.311 123.573C150.303 121.589 150.888 120.016 152.067 118.854C153.262 117.691 154.985 117.097 157.235 117.073C158.668 117.058 159.894 117.319 160.913 117.858C161.948 118.381 162.726 119.114 163.247 120.058C163.784 120.986 164.055 122.041 164.06 123.225L164.066 124.85L154.492 124.953C154.661 125.618 155.08 126.096 155.748 126.389C156.415 126.682 157.324 126.822 158.474 126.81C159.258 126.802 160.057 126.726 160.873 126.584C161.706 126.442 162.422 126.251 163.021 126.011L163.033 128.911C162.417 129.168 161.643 129.376 160.71 129.536C159.794 129.713 158.853 129.806 157.887 129.816ZM159.905 122.144C159.836 121.495 159.567 120.99 159.099 120.628C158.631 120.266 157.989 120.09 157.172 120.099C156.372 120.107 155.74 120.306 155.274 120.694C154.809 121.066 154.545 121.569 154.481 122.203L159.905 122.144ZM172.476 129.659C170.276 129.683 168.532 129.152 167.245 128.066C165.957 126.979 165.309 125.42 165.301 123.386C165.292 121.353 165.927 119.771 167.206 118.641C168.502 117.51 170.249 116.933 172.449 116.909C173.432 116.899 174.349 116.989 175.2 117.18C176.068 117.354 176.785 117.612 177.353 117.956L177.367 121.381C176.348 120.659 175.005 120.307 173.338 120.325C172.271 120.336 171.414 120.595 170.766 121.102C170.135 121.593 169.821 122.338 169.825 123.338C169.829 124.354 170.149 125.101 170.784 125.577C171.42 126.037 172.27 126.261 173.337 126.25C174.954 126.233 176.352 125.834 177.532 125.055L177.546 128.455C176.282 129.235 174.592 129.637 172.476 129.659ZM184.502 129.53C183.019 129.546 181.892 129.15 181.122 128.341C180.369 127.516 179.989 126.387 179.983 124.953L179.964 120.253L178.264 120.272L178.252 117.222L179.952 117.203L179.937 113.603L184.337 113.556L184.351 117.156L187.101 117.126L187.114 120.176L184.364 120.206L184.381 124.306C184.383 124.956 184.502 125.421 184.736 125.702C184.987 125.983 185.421 126.12 186.038 126.113C186.588 126.107 187.137 125.951 187.686 125.645L187.699 128.92C187.267 129.125 186.801 129.272 186.301 129.36C185.818 129.466 185.218 129.522 184.502 129.53ZM191.238 115.482C190.572 115.489 190.012 115.278 189.561 114.85C189.109 114.421 188.882 113.874 188.879 113.207C188.876 112.557 189.099 112.013 189.547 111.575C189.995 111.12 190.553 110.889 191.219 110.882C191.869 110.875 192.42 111.094 192.872 111.539C193.34 111.967 193.576 112.507 193.579 113.157C193.581 113.807 193.35 114.359 192.885 114.814C192.437 115.252 191.888 115.475 191.238 115.482ZM189.045 117.105L193.445 117.058L193.493 129.058L189.094 129.105L189.045 117.105ZM202.802 129.333C201.319 129.349 200.018 129.096 198.899 128.575C197.78 128.037 196.911 127.296 196.29 126.353C195.686 125.393 195.382 124.288 195.377 123.038C195.372 121.788 195.667 120.684 196.263 119.728C196.876 118.755 197.74 117.995 198.854 117.45C199.968 116.888 201.267 116.599 202.75 116.583C204.234 116.567 205.535 116.828 206.654 117.366C207.772 117.887 208.634 118.628 209.238 119.588C209.858 120.532 210.171 121.628 210.176 122.878C210.181 124.128 209.877 125.24 209.265 126.213C208.668 127.17 207.813 127.929 206.699 128.491C205.584 129.036 204.286 129.317 202.802 129.333ZM202.788 125.908C203.672 125.898 204.371 125.632 204.885 125.11C205.416 124.571 205.68 123.843 205.676 122.927C205.672 122.01 205.403 121.296 204.868 120.785C204.349 120.258 203.648 119.998 202.764 120.008C201.881 120.017 201.174 120.292 200.643 120.831C200.128 121.353 199.873 122.072 199.877 122.989C199.88 123.906 200.142 124.628 200.66 125.156C201.196 125.667 201.905 125.917 202.788 125.908ZM211.891 116.86L216.141 116.814L216.147 118.139C216.661 117.567 217.284 117.135 218.016 116.844C218.748 116.552 219.515 116.402 220.314 116.394C221.998 116.376 223.241 116.804 224.045 117.679C224.865 118.537 225.278 119.715 225.284 121.215L225.314 128.715L220.915 128.763L220.887 121.838C220.881 120.488 220.262 119.82 219.028 119.833C218.462 119.839 217.946 119.978 217.48 120.249C217.015 120.504 216.625 120.9 216.31 121.437L216.34 128.812L211.94 128.859L211.891 116.86Z" fill="white"/>
</svg>
