<svg width="38" height="61" viewBox="0 0 38 61" fill="none" xmlns="http://www.w3.org/2000/svg">
<g id="ParallelRods">
<g id="Rod">
<path id="Handle" d="M6 0.226009L0.226497 5.99951L6 11.773L11.7735 5.99951L6 0.226009ZM6 59.773L11.7735 53.9995L6 48.226L0.226497 53.9995L6 59.773ZM5 5.99951L5 53.9995H7L7 5.99951H5Z" fill="#B3B1B1"/>
<g id="HandleEnd">
<path d="M0.0785334 6.07857L6.07849 0.0785282L12.0785 6.07854L6.07839 12.0764L0.0785334 6.07857Z" fill="#B2B1B1"/>
<path d="M0.0785334 6.07857L6.07849 0.0785282L12.0785 6.07854L6.07839 12.0764L0.0785334 6.07857Z" fill="#B2B1B1"/>
<path d="M0.0785334 6.07857L6.07849 0.0785282L12.0785 6.07854L6.07839 12.0764L0.0785334 6.07857Z" fill="#B2B1B1"/>
<path d="M0.0785334 6.07857L6.07849 0.0785282L12.0785 6.07854L6.07839 12.0764L0.0785334 6.07857Z" fill="#B2B1B1"/>
</g>
<g id="HandleEnd_2">
<path d="M0.0785334 54.0786L6.07849 48.0785L12.0785 54.0785L6.07839 60.0764L0.0785334 54.0786Z" fill="#B2B1B1"/>
<path d="M0.0785334 54.0786L6.07849 48.0785L12.0785 54.0785L6.07839 60.0764L0.0785334 54.0786Z" fill="#B2B1B1"/>
<path d="M0.0785334 54.0786L6.07849 48.0785L12.0785 54.0785L6.07839 60.0764L0.0785334 54.0786Z" fill="#B2B1B1"/>
<path d="M0.0785334 54.0786L6.07849 48.0785L12.0785 54.0785L6.07839 60.0764L0.0785334 54.0786Z" fill="#B2B1B1"/>
</g>
</g>
<g id="Rod_2">
<path id="Handle_2" d="M31.156 0.226009L25.3825 5.99951L31.156 11.773L36.9295 5.99951L31.156 0.226009ZM31.156 59.773L36.9295 53.9995L31.156 48.226L25.3825 53.9995L31.156 59.773ZM30.156 5.99951L30.156 53.9995H32.156V5.99951H30.156Z" fill="#B3B1B1"/>
<g id="HandleEnd_3">
<path d="M25.2345 6.07857L31.2345 0.0785282L37.2345 6.07854L31.2344 12.0764L25.2345 6.07857Z" fill="#B2B1B1"/>
<path d="M25.2345 6.07857L31.2345 0.0785282L37.2345 6.07854L31.2344 12.0764L25.2345 6.07857Z" fill="#B2B1B1"/>
<path d="M25.2345 6.07857L31.2345 0.0785282L37.2345 6.07854L31.2344 12.0764L25.2345 6.07857Z" fill="#B2B1B1"/>
<path d="M25.2345 6.07857L31.2345 0.0785282L37.2345 6.07854L31.2344 12.0764L25.2345 6.07857Z" fill="#B2B1B1"/>
</g>
<g id="HandleEnd_4">
<path d="M25.2345 54.0786L31.2345 48.0785L37.2345 54.0785L31.2344 60.0764L25.2345 54.0786Z" fill="#B2B1B1"/>
<path d="M25.2345 54.0786L31.2345 48.0785L37.2345 54.0785L31.2344 60.0764L25.2345 54.0786Z" fill="#B2B1B1"/>
<path d="M25.2345 54.0786L31.2345 48.0785L37.2345 54.0785L31.2344 60.0764L25.2345 54.0786Z" fill="#B2B1B1"/>
<path d="M25.2345 54.0786L31.2345 48.0785L37.2345 54.0785L31.2344 60.0764L25.2345 54.0786Z" fill="#B2B1B1"/>
</g>
</g>
</g>
</svg>
